<svg xmlns="http://www.w3.org/2000/svg" xmlns:xlink="http://www.w3.org/1999/xlink" width="194.211" height="48.576" viewBox="0 0 194.211 48.576">
  <defs>
    <linearGradient id="linear-gradient" y1="0.5" x2="1" y2="0.5" gradientUnits="objectBoundingBox">
      <stop offset="0" stop-color="#00d6f7"/>
      <stop offset="0" stop-color="#00ccf1"/>
      <stop offset="0" stop-color="#00c8ef"/>
      <stop offset="1" stop-color="#0093e2"/>
    </linearGradient>
    <linearGradient id="linear-gradient-2" x1="0" y1="0.5" x2="1" y2="0.5" xlink:href="#linear-gradient"/>
    <linearGradient id="linear-gradient-3" y1="0.499" x2="1" y2="0.499" gradientUnits="objectBoundingBox">
      <stop offset="0" stop-color="#cb00bf"/>
      <stop offset="1" stop-color="#346adf"/>
      <stop offset="1" stop-color="#004ccc"/>
    </linearGradient>
    <linearGradient id="linear-gradient-4" y1="0.5" x2="1" y2="0.5" gradientUnits="objectBoundingBox">
      <stop offset="0" stop-color="#740784"/>
      <stop offset="1" stop-color="#0d41c1"/>
    </linearGradient>
    <linearGradient id="linear-gradient-5" y1="0.5" x2="1" y2="0.5" gradientUnits="objectBoundingBox">
      <stop offset="0" stop-color="#520785"/>
      <stop offset="1" stop-color="#0252d2"/>
    </linearGradient>
    <linearGradient id="linear-gradient-6" y1="0.5" x2="1" y2="0.5" gradientUnits="objectBoundingBox">
      <stop offset="0" stop-color="#0053b6"/>
      <stop offset="0.258" stop-color="#0070c9"/>
      <stop offset="0.517" stop-color="#0086d8"/>
      <stop offset="0.767" stop-color="#0093e0"/>
      <stop offset="1" stop-color="#0097e3"/>
    </linearGradient>
    <linearGradient id="linear-gradient-7" y1="0.499" x2="1" y2="0.499" gradientUnits="objectBoundingBox">
      <stop offset="0" stop-color="#0053b6"/>
      <stop offset="1" stop-color="#0097e3"/>
    </linearGradient>
    <linearGradient id="linear-gradient-8" y1="0.5" x2="1" y2="0.5" gradientUnits="objectBoundingBox">
      <stop offset="0.074" stop-color="#004fb5"/>
      <stop offset="0.935" stop-color="#008ad8"/>
    </linearGradient>
    <linearGradient id="linear-gradient-9" y1="0.501" x2="1" y2="0.501" gradientUnits="objectBoundingBox">
      <stop offset="0.074" stop-color="#c306c1"/>
      <stop offset="0.935" stop-color="#644fd7"/>
    </linearGradient>
  </defs>
  <g id="erudite-logo-color" transform="translate(-671 137.937)">
    <g id="Group_3" data-name="Group 3" transform="translate(649.961 -150.999)">
      <path id="Path_17" data-name="Path 17" d="M65.84,26.26v3.4L58,29.67l.01,6.09,7.49-.01v3.4l-7.49.01.01,6.17,8.16-.01v3.41l-11.64.01-.03-22.46Z" fill="#16009d"/>
      <path id="Path_18" data-name="Path 18" d="M72.48,48.72H69.06l-.02-14.74a9.706,9.706,0,0,1,3.28-1.44,13.365,13.365,0,0,1,6.72.16v3.38a10.919,10.919,0,0,0-3.64-.66,6.844,6.844,0,0,0-2.94.61Z" fill="#16009d"/>
      <path id="Path_19" data-name="Path 19" d="M95.83,47.1a12.784,12.784,0,0,1-6.77,1.94,7.9,7.9,0,0,1-5.48-1.73,6.8,6.8,0,0,1-2.01-5.34l-.01-9.29h3.43L85,41.97c0,1.63.4,2.73,1.2,3.29a5.194,5.194,0,0,0,2.86.57,6.129,6.129,0,0,0,1.89-.28c.22-.07.47-.16.75-.28l.37-.16.35-.15-.02-12.3h3.42Z" fill="#16009d"/>
      <path id="Path_20" data-name="Path 20" d="M109.18,24.56h3.43l.03,21.96a10.205,10.205,0,0,1-3.25,1.82,12.4,12.4,0,0,1-4.07.66,7.808,7.808,0,0,1-2.94-.56,6.782,6.782,0,0,1-2.32-1.56,7.533,7.533,0,0,1-2.07-5.49,14.36,14.36,0,0,1,.53-4.75,7.267,7.267,0,0,1,1.55-2.36,6.754,6.754,0,0,1,2.28-1.52,7.631,7.631,0,0,1,2.94-.58,7.015,7.015,0,0,1,3.9,1.05Zm.02,12.33a8.624,8.624,0,0,0-1.75-1.13,5.478,5.478,0,0,0-2.15-.38,3.694,3.694,0,0,0-2.76,1.13c-.76.78-1.13,2.15-1.13,4.09s.37,3.29,1.11,4.04a3.758,3.758,0,0,0,2.79,1.16,6.647,6.647,0,0,0,3.89-1.05Z" fill="#16009d"/>
      <path id="Path_21" data-name="Path 21" d="M118.92,29.85h-3.43V26.94h3.43Zm-3.4,18.86-.02-16.05h3.43l.02,16.05Z" fill="#16009d"/>
      <path id="Path_22" data-name="Path 22" d="M129.26,48.73a8.861,8.861,0,0,1-1.41.2c-.18.01-.37.02-.56.02-.08,0-.16.01-.25.01h-.23a4.655,4.655,0,0,1-3.68-1.43,5.844,5.844,0,0,1-1.31-4.04l-.02-15.66h3.42l.01,4.77,4.02-.01V35.4l-4.02.01.01,7.62a3.718,3.718,0,0,0,.43,2.06,1.825,1.825,0,0,0,1.61.66,4.3,4.3,0,0,0,1.99-.4Zm0,0a8.861,8.861,0,0,1-1.41.2c-.18.01-.37.02-.56.02-.08,0-.16.01-.25.01h-.23a4.655,4.655,0,0,1-3.68-1.43,5.844,5.844,0,0,1-1.31-4.04l-.02-15.66h3.42l.01,4.77,4.02-.01V35.4l-4.02.01.01,7.62a3.718,3.718,0,0,0,.43,2.06,1.825,1.825,0,0,0,1.61.66,4.3,4.3,0,0,0,1.99-.4Z" fill="#16009d"/>
      <path id="Path_23" data-name="Path 23" d="M138.44,32.12a5.873,5.873,0,0,1,4.29,1.57,7.292,7.292,0,0,1,1.85,3.27,14.74,14.74,0,0,1,.27,5.25l-10.46.01a3.292,3.292,0,0,0,.66,1.69,4.4,4.4,0,0,0,3.87,1.68,9.54,9.54,0,0,0,3.46-.67,7.479,7.479,0,0,0,1.36-.67v3.6a12.717,12.717,0,0,1-5.28,1.12,7.618,7.618,0,0,1-2.94-.56,7,7,0,0,1-2.35-1.54c-1.41-1.4-2.12-3.53-2.12-6.36s.64-4.94,1.94-6.31a6.655,6.655,0,0,1,5.04-2.06Zm3.07,6.61a3.458,3.458,0,0,0-.9-2.4,2.824,2.824,0,0,0-2.17-.99h-.4a3.465,3.465,0,0,0-2.58,1.01,4.122,4.122,0,0,0-1.11,2.71l7.16-.01Z" fill="#16009d"/>
    </g>
    <g id="Group_4" data-name="Group 4" transform="translate(722.961 -169.999)">
      <path id="Path_24" data-name="Path 24" d="M80.62,59.84a1.338,1.338,0,0,0,.18.73,1.57,1.57,0,0,0,.48.48,2.719,2.719,0,0,0,.71.31c.27.08.55.15.84.22.39.09.77.2,1.15.31a3.625,3.625,0,0,1,1.01.48,2.48,2.48,0,0,1,.72.79,2.61,2.61,0,0,1,.28,1.26,2.986,2.986,0,0,1-.29,1.35,2.45,2.45,0,0,1-.82.93,3.79,3.79,0,0,1-1.24.54,6.421,6.421,0,0,1-1.56.18,7.308,7.308,0,0,1-.8-.05c-.27-.03-.53-.08-.78-.13a6.937,6.937,0,0,1-.67-.19,2.379,2.379,0,0,1-.47-.21V65.72a5.591,5.591,0,0,0,1.31.44c.24.05.48.09.73.13a5.756,5.756,0,0,0,.69.04,5.313,5.313,0,0,0,1-.09,2.609,2.609,0,0,0,.84-.3,1.513,1.513,0,0,0,.57-.58,1.815,1.815,0,0,0,.21-.92,1.292,1.292,0,0,0-.19-.74,1.529,1.529,0,0,0-.49-.49,2.852,2.852,0,0,0-.73-.29c-.27-.08-.55-.15-.85-.22-.39-.09-.77-.19-1.15-.3a3.418,3.418,0,0,1-1-.47,2.382,2.382,0,0,1-.71-.77,2.435,2.435,0,0,1-.27-1.21,2.856,2.856,0,0,1,.28-1.32,2.72,2.72,0,0,1,.76-.92,3.423,3.423,0,0,1,1.1-.54A4.8,4.8,0,0,1,82.79,57a7.06,7.06,0,0,1,1.5.15,7.68,7.68,0,0,1,1.28.4v1.14a9.757,9.757,0,0,0-1.29-.43,5.878,5.878,0,0,0-1.42-.17,3.255,3.255,0,0,0-.99.13,2.186,2.186,0,0,0-.7.35,1.339,1.339,0,0,0-.41.56A1.835,1.835,0,0,0,80.62,59.84Z" fill="#110079"/>
      <path id="Path_25" data-name="Path 25" d="M94.37,63.66a4.633,4.633,0,0,1-.24,1.53,3.561,3.561,0,0,1-.68,1.19,2.992,2.992,0,0,1-1.06.76,3.5,3.5,0,0,1-1.4.27,3.61,3.61,0,0,1-1.43-.27,2.943,2.943,0,0,1-1.07-.76,3.465,3.465,0,0,1-.68-1.19,5.131,5.131,0,0,1,.01-3.07,3.561,3.561,0,0,1,.68-1.19,2.967,2.967,0,0,1,1.07-.77,3.816,3.816,0,0,1,2.82,0,2.967,2.967,0,0,1,1.07.77,3.542,3.542,0,0,1,.67,1.19A4.651,4.651,0,0,1,94.37,63.66Zm-1.22,0a3.917,3.917,0,0,0-.16-1.18,2.647,2.647,0,0,0-.45-.87,1.806,1.806,0,0,0-.69-.54,2.118,2.118,0,0,0-.87-.18,1.916,1.916,0,0,0-.87.19,1.885,1.885,0,0,0-.69.54,2.751,2.751,0,0,0-.45.87,3.873,3.873,0,0,0-.16,1.18,3.806,3.806,0,0,0,.16,1.17,2.577,2.577,0,0,0,.46.87,2.093,2.093,0,0,0,.69.54,2.118,2.118,0,0,0,.87.18,1.916,1.916,0,0,0,.87-.19,1.853,1.853,0,0,0,.68-.54,2.751,2.751,0,0,0,.45-.87A3.806,3.806,0,0,0,93.15,63.66Z" fill="#110079"/>
      <path id="Path_26" data-name="Path 26" d="M100.35,57.25c-.15-.03-.32-.05-.5-.07a4.107,4.107,0,0,0-.47-.02,2.151,2.151,0,0,0-.7.1,1.29,1.29,0,0,0-.52.31,1.332,1.332,0,0,0-.32.56,2.974,2.974,0,0,0-.11.85v1.1h2.13v1H97.73l.01,6.14H96.57l-.01-6.14H95.3v-1h1.26V58.99a3.5,3.5,0,0,1,.21-1.3,2.439,2.439,0,0,1,.57-.87,2.085,2.085,0,0,1,.85-.5,3.6,3.6,0,0,1,1.05-.16,4.733,4.733,0,0,1,.67.04,2.487,2.487,0,0,1,.45.08Z" fill="#110079"/>
      <path id="Path_27" data-name="Path 27" d="M104.88,67.23a2.061,2.061,0,0,1-.46.11,5.027,5.027,0,0,1-.74.06,3.17,3.17,0,0,1-.98-.14,1.8,1.8,0,0,1-.69-.4,1.6,1.6,0,0,1-.41-.63,2.391,2.391,0,0,1-.14-.82l-.01-4.35h-1.38v-1h1.38V58.1h1.17v1.96h2.14v1h-2.14l.01,4.17a1.346,1.346,0,0,0,.07.46.857.857,0,0,0,.23.36,1.041,1.041,0,0,0,.4.24,1.644,1.644,0,0,0,.58.09,2.774,2.774,0,0,0,.49-.04c.17-.03.33-.06.48-.1Z" fill="#110079"/>
      <path id="Path_28" data-name="Path 28" d="M110.71,61.24c-.15.66-.29,1.22-.43,1.7l-1.15,4.27h-1.18l-2.33-7.14h1.17l1.34,4.45c.18.59.31,1.05.4,1.41h.03c.08-.36.21-.88.4-1.56l1.19-4.3h1.17l1.31,4.29c.18.58.32,1.1.44,1.56h.03c.12-.46.25-.93.4-1.41l1.33-4.46H116l-2.37,7.15h-1.22l-1.19-4.26c-.14-.51-.29-1.07-.44-1.7h-.07Z" fill="#110079"/>
      <path id="Path_29" data-name="Path 29" d="M121.61,66.4h-.03a3.055,3.055,0,0,1-.36.36,2.686,2.686,0,0,1-.5.32,2.535,2.535,0,0,1-.62.22,3.379,3.379,0,0,1-.72.08,2.868,2.868,0,0,1-.95-.15,2.033,2.033,0,0,1-.75-.45,2.086,2.086,0,0,1-.49-.73,2.469,2.469,0,0,1-.17-.97,2.286,2.286,0,0,1,.19-.96,1.919,1.919,0,0,1,.54-.71,2.3,2.3,0,0,1,.83-.45,3.293,3.293,0,0,1,1.07-.16,5.537,5.537,0,0,1,1.03.1,5.09,5.09,0,0,1,.84.22h.03v-.5a2.681,2.681,0,0,0-.04-.52,1.565,1.565,0,0,0-.13-.4,1.527,1.527,0,0,0-.63-.6,2.384,2.384,0,0,0-1.16-.24,5.513,5.513,0,0,0-1.02.1,6.447,6.447,0,0,0-.95.28v-.98a2.815,2.815,0,0,1,.42-.17c.16-.05.33-.1.52-.14a5.211,5.211,0,0,1,.57-.09q.3-.03.6-.03a3.685,3.685,0,0,1,1.77.38,2.243,2.243,0,0,1,.99,1.01,1.817,1.817,0,0,1,.16.53,4.024,4.024,0,0,1,.05.63l.01,4.77h-.98Zm-.07-2.34a7.391,7.391,0,0,0-.76-.17,6.967,6.967,0,0,0-.97-.09,1.9,1.9,0,0,0-1.16.32,1.13,1.13,0,0,0-.42.97,1.5,1.5,0,0,0,.11.58,1.124,1.124,0,0,0,.72.65,1.905,1.905,0,0,0,.54.08,2.28,2.28,0,0,0,.7-.11,2.51,2.51,0,0,0,.57-.26,3.2,3.2,0,0,0,.43-.3c.12-.1.2-.18.26-.23Z" fill="#110079"/>
      <path id="Path_30" data-name="Path 30" d="M128.88,60.99h-.09a3.591,3.591,0,0,0-.81.08,3.455,3.455,0,0,0-.75.23,2.854,2.854,0,0,0-.63.38,2.157,2.157,0,0,0-.47.53l.01,4.98h-1.17l-.01-7.15h.9l.23,1.14h.02a2.692,2.692,0,0,1,.99-.94,3.022,3.022,0,0,1,.69-.28,2.9,2.9,0,0,1,.79-.1h.15c.05,0,.1.01.14.01Z" fill="#110079"/>
      <path id="Path_31" data-name="Path 31" d="M133.52,66.35a5.742,5.742,0,0,0,1.06-.09,5.39,5.39,0,0,0,.95-.27v.97a3.941,3.941,0,0,1-.95.3,6.637,6.637,0,0,1-1.21.11,5.166,5.166,0,0,1-1.44-.19,3.012,3.012,0,0,1-1.17-.63,2.842,2.842,0,0,1-.77-1.14,4.516,4.516,0,0,1-.28-1.7,4.852,4.852,0,0,1,.27-1.7,3.553,3.553,0,0,1,.72-1.2,2.915,2.915,0,0,1,1.03-.72,3.228,3.228,0,0,1,2.34-.04,2.268,2.268,0,0,1,.91.63,3.046,3.046,0,0,1,.6,1.1,5.183,5.183,0,0,1,.22,1.63v.15c0,.04,0,.14-.01.29l-4.93.01a2.863,2.863,0,0,0,.21,1.16,2.049,2.049,0,0,0,.56.77,2.234,2.234,0,0,0,.84.43A3.976,3.976,0,0,0,133.52,66.35Zm-.62-5.5a1.712,1.712,0,0,0-.75.16,2,2,0,0,0-.6.43,2.221,2.221,0,0,0-.42.64,2.488,2.488,0,0,0-.2.78h3.66a2.9,2.9,0,0,0-.11-.79,1.924,1.924,0,0,0-.32-.64,1.456,1.456,0,0,0-.53-.42A1.6,1.6,0,0,0,132.9,60.85Z" fill="#110079"/>
      <path id="Path_32" data-name="Path 32" d="M138.62,61.93a.78.78,0,0,0,.13.48.864.864,0,0,0,.33.3,2,2,0,0,0,.49.19c.18.05.37.1.57.14.27.06.52.13.76.2a2.2,2.2,0,0,1,.67.33,1.511,1.511,0,0,1,.49.59,2.094,2.094,0,0,1,.19.97,2.118,2.118,0,0,1-.21.96,1.992,1.992,0,0,1-.59.7,2.7,2.7,0,0,1-.92.43,4.358,4.358,0,0,1-1.17.15,5.138,5.138,0,0,1-.71-.04c-.21-.03-.4-.06-.56-.1s-.3-.09-.42-.13-.21-.09-.29-.13v-.98a8.212,8.212,0,0,0,.88.29,4.1,4.1,0,0,0,.96.1,3.45,3.45,0,0,0,.75-.08,2.118,2.118,0,0,0,.57-.22,1.091,1.091,0,0,0,.37-.37.98.98,0,0,0,.13-.52.949.949,0,0,0-.12-.5.979.979,0,0,0-.32-.32,1.947,1.947,0,0,0-.46-.21,4.415,4.415,0,0,0-.55-.15,7.1,7.1,0,0,1-.76-.2,3.247,3.247,0,0,1-.71-.31,1.587,1.587,0,0,1-.51-.55,1.817,1.817,0,0,1-.2-.9,2.284,2.284,0,0,1,.2-.98,2.076,2.076,0,0,1,.55-.69,2.25,2.25,0,0,1,.8-.41,3.446,3.446,0,0,1,.97-.14,5.394,5.394,0,0,1,1.1.11,5.242,5.242,0,0,1,.92.29v.99a5.733,5.733,0,0,0-.89-.28,4.734,4.734,0,0,0-.93-.12,2.725,2.725,0,0,0-.69.08,1.375,1.375,0,0,0-.47.23.919.919,0,0,0-.27.35A1.329,1.329,0,0,0,138.62,61.93Z" fill="#110079"/>
    </g>
    <g id="Group_5" data-name="Group 5" transform="translate(668.961 -141.936)">
      <path id="Path_33" data-name="Path 33" d="M12.68,58.93c13.15.007,26.048.007,39.128.014-.218.478-.324.774-.478,1.041-1.119,1.942-2.259,3.884-3.377,5.826A5.714,5.714,0,0,1,42.83,68.83c-2.772.056-5.551.007-8.324,0-3.954-.014-7.916-.063-11.87-.028a6.6,6.6,0,0,1-6.459-3.757c-.922-1.773-2.005-3.455-3.011-5.186C13.039,59.648,12.933,59.43,12.68,58.93Z" transform="translate(-3.154 -16.281)" fill="url(#linear-gradient)"/>
      <path id="Path_34" data-name="Path 34" d="M12.85,13.864c1.295-2.223,2.61-4.5,3.785-6.642a5.791,5.791,0,0,1,2.92-2.653A5.317,5.317,0,0,1,21.427,4.1c2.85-.077,5.706-.091,8.556-.1,4-.007,8,.084,11.989.007a6.856,6.856,0,0,1,6.755,3.926c1,1.907,2.245,4.053,3.314,5.931Z" transform="translate(-3.204 0)" fill="url(#linear-gradient-2)"/>
      <path id="Path_35" data-name="Path 35" d="M4.174,41.4l21.861.091a.594.594,0,0,0,.514-.3l5.5-9.661H4.174a7.469,7.469,0,0,0-2.1,4.932A7.763,7.763,0,0,0,4.174,41.4Z" transform="translate(-0.009 -8.163)" fill="url(#linear-gradient-3)"/>
      <path id="Path_36" data-name="Path 36" d="M4.164,42.769s-2.378-2.589-2.1-5.453c0,0,7.493-2.681,14.987.063a22.3,22.3,0,0,0,11.807,1.1L26.363,42.86Z" transform="translate(0 -9.527)" fill="url(#linear-gradient-4)"/>
      <path id="Path_37" data-name="Path 37" d="M5.06,44.326s4.018-3.018,7.31-2.927c3.933.113,5.594,1.02,10.413,1.464a24.1,24.1,0,0,0,5.791-.76l-1.161,2.033a.555.555,0,0,1-.478.274Z" transform="translate(-0.896 -11.084)" fill="url(#linear-gradient-5)"/>
      <path id="Path_38" data-name="Path 38" d="M12.72,58.93,15.042,63S24.569,64.5,28.614,64.5c3.11,0,5.207-2.287,8.5-2.927,4.13-.8,8.549,2.139,13.756-.788a10.591,10.591,0,0,0,.95-1.858Z" transform="translate(-3.166 -16.281)" fill="url(#linear-gradient-6)"/>
      <path id="Path_39" data-name="Path 39" d="M44.04,71.837a22.222,22.222,0,0,1,6.375-2.28c4.172-.816,6.361,0,6.361,0A5.712,5.712,0,0,1,54.8,71.2a5.222,5.222,0,0,1-2.969.64H44.04Z" transform="translate(-12.449 -19.323)" opacity="0.52" fill="url(#linear-gradient-7)"/>
      <path id="Path_40" data-name="Path 40" d="M12.85,14.883l4.278-7.416s22.741-.654,32.985,4.018l1.928,3.4Z" transform="translate(-3.204 -1.018)" fill="url(#linear-gradient-8)"/>
      <path id="Path_41" data-name="Path 41" d="M12.85,16.239l2.434-4.229a9.874,9.874,0,0,0,7.064,1.942c7.036-.577,14.255-4.383,29.692,2.287Z" transform="translate(-3.204 -2.374)" fill="url(#linear-gradient-9)"/>
    </g>
  </g>
</svg>
