<?xml version="1.0" encoding="utf-8"?>
<!-- Generator: Adobe Illustrator 23.0.0, SVG Export Plug-In . SVG Version: 6.00 Build 0)  -->
<svg version="1.1" id="Layer_1" xmlns="http://www.w3.org/2000/svg" xmlns:xlink="http://www.w3.org/1999/xlink" x="0px" y="0px"
	 viewBox="0 0 150 76" style="enable-background:new 0 0 150 76;" xml:space="preserve">
<style type="text/css">
	.st0{fill:#FFFFFF;}
	.st1{fill:url(#SVGID_1_);}
	.st2{fill:url(#SVGID_2_);}
	.st3{fill:url(#SVGID_3_);}
	.st4{fill:url(#SVGID_4_);}
	.st5{fill:url(#SVGID_5_);}
	.st6{fill:url(#SVGID_6_);}
	.st7{opacity:0.52;fill:url(#SVGID_7_);}
	.st8{fill:url(#SVGID_8_);}
	.st9{fill:url(#SVGID_9_);}
</style>
<g>
	<path class="st0" d="M65.84,26.26l0,3.4L58,29.67l0.01,6.09l7.49-0.01l0,3.4l-7.49,0.01l0.01,6.17l8.16-0.01l0,3.41l-11.64,0.01
		l-0.03-22.46L65.84,26.26z"/>
	<path class="st0" d="M72.48,48.72l-3.42,0l-0.02-14.74c0.93-0.65,2.02-1.13,3.28-1.44c2.13-0.52,4.37-0.47,6.72,0.16l0,3.38
		c-1.25-0.44-2.46-0.66-3.64-0.66c-1.08,0-2.07,0.2-2.94,0.61L72.48,48.72z"/>
	<path class="st0" d="M95.83,47.1c-2.1,1.29-4.35,1.93-6.77,1.94c-2.37,0-4.19-0.57-5.48-1.73c-1.34-1.2-2.01-2.98-2.01-5.34
		l-0.01-9.29l3.43,0L85,41.97c0,1.63,0.4,2.73,1.2,3.29c0.55,0.38,1.51,0.58,2.86,0.57c0.67,0,1.3-0.09,1.89-0.28
		c0.22-0.07,0.47-0.16,0.75-0.28l0.37-0.16l0.35-0.15l-0.02-12.3l3.42,0L95.83,47.1z"/>
	<path class="st0" d="M109.18,24.56l3.43,0l0.03,21.96c-0.93,0.78-2.01,1.39-3.25,1.82c-1.28,0.44-2.63,0.66-4.07,0.66
		c-1.04,0-2.02-0.19-2.94-0.56c-0.88-0.36-1.66-0.88-2.32-1.56c-1.37-1.39-2.06-3.22-2.07-5.49c0-2.27,0.17-3.86,0.53-4.75
		c0.35-0.87,0.87-1.66,1.55-2.36c0.64-0.65,1.4-1.16,2.28-1.52c0.92-0.38,1.9-0.58,2.94-0.58c1.52,0,2.82,0.35,3.9,1.05
		L109.18,24.56z M109.2,36.89c-0.72-0.56-1.3-0.94-1.75-1.13c-0.59-0.25-1.3-0.38-2.15-0.38c-1.11,0-2.03,0.38-2.76,1.13
		c-0.76,0.78-1.13,2.15-1.13,4.09c0,1.94,0.37,3.29,1.11,4.04c0.75,0.77,1.69,1.16,2.79,1.16c1.59,0,2.89-0.35,3.89-1.05
		L109.2,36.89z"/>
	<path class="st0" d="M118.92,29.85l-3.43,0l0-2.91l3.43,0L118.92,29.85z M115.52,48.71l-0.02-16.05l3.43,0l0.02,16.05L115.52,48.71
		z"/>
	<path class="st0" d="M129.26,48.73c-0.48,0.11-0.95,0.17-1.41,0.2c-0.18,0.01-0.37,0.02-0.56,0.02c-0.08,0-0.16,0.01-0.25,0.01
		h-0.23c-1.6,0-2.83-0.47-3.68-1.43c-0.87-0.97-1.31-2.32-1.31-4.04l-0.02-15.66l3.42,0l0.01,4.77l4.02-0.01l0,2.81l-4.02,0.01
		l0.01,7.62c0,0.96,0.14,1.64,0.43,2.06c0.31,0.44,0.84,0.66,1.61,0.66c0.81,0,1.47-0.13,1.99-0.4L129.26,48.73z M129.26,48.73
		c-0.48,0.11-0.95,0.17-1.41,0.2c-0.18,0.01-0.37,0.02-0.56,0.02c-0.08,0-0.16,0.01-0.25,0.01h-0.23c-1.6,0-2.83-0.47-3.68-1.43
		c-0.87-0.97-1.31-2.32-1.31-4.04l-0.02-15.66l3.42,0l0.01,4.77l4.02-0.01l0,2.81l-4.02,0.01l0.01,7.62c0,0.96,0.14,1.64,0.43,2.06
		c0.31,0.44,0.84,0.66,1.61,0.66c0.81,0,1.47-0.13,1.99-0.4L129.26,48.73z"/>
	<path class="st0" d="M138.44,32.12c1.79,0,3.21,0.52,4.29,1.57c0.85,0.84,1.47,1.93,1.85,3.27s0.47,3.08,0.27,5.25l-10.46,0.01
		c0.04,0.57,0.26,1.13,0.66,1.69c0.79,1.12,2.08,1.68,3.87,1.68c1.17,0,2.32-0.23,3.46-0.67c0.57-0.22,1.02-0.45,1.36-0.67l0,3.6
		c-1.62,0.74-3.38,1.11-5.28,1.12c-1.04,0-2.02-0.18-2.94-0.56c-0.89-0.36-1.68-0.87-2.35-1.54c-1.41-1.4-2.12-3.53-2.12-6.36
		c0-2.84,0.64-4.94,1.94-6.31c1.3-1.37,2.99-2.06,5.04-2.06L138.44,32.12z M141.51,38.73c0-0.94-0.3-1.73-0.9-2.4
		c-0.6-0.66-1.32-0.99-2.17-0.99l-0.4,0c-1.06,0-1.92,0.34-2.58,1.01c-0.66,0.67-1.03,1.57-1.11,2.71l7.16-0.01L141.51,38.73z"/>
</g>
<g>
	<linearGradient id="SVGID_1_" gradientUnits="userSpaceOnUse" x1="12.6779" y1="65.9848" x2="68.2849" y2="65.9848">
		<stop  offset="0" style="stop-color:#00D6F7"/>
		<stop  offset="5.925599e-08" style="stop-color:#00CCF1"/>
		<stop  offset="1.274966e-07" style="stop-color:#00C8EF"/>
		<stop  offset="1" style="stop-color:#0093E2"/>
	</linearGradient>
	<path class="st1" d="M12.68,58.93c18.69,0.01,37.02,0.01,55.61,0.02c-0.31,0.68-0.46,1.1-0.68,1.48c-1.59,2.76-3.21,5.52-4.8,8.28
		c-1.62,2.81-4.1,4.23-7.28,4.29c-3.94,0.08-7.89,0.01-11.83,0c-5.62-0.02-11.25-0.09-16.87-0.04c-4.16,0.03-7.22-1.57-9.18-5.34
		c-1.31-2.52-2.85-4.91-4.28-7.37C13.19,59.95,13.04,59.64,12.68,58.93z"/>
	<linearGradient id="SVGID_2_" gradientUnits="userSpaceOnUse" x1="12.8474" y1="11.0125" x2="68.5575" y2="11.0125">
		<stop  offset="0" style="stop-color:#00D6F7"/>
		<stop  offset="5.925599e-08" style="stop-color:#00CCF1"/>
		<stop  offset="1.274966e-07" style="stop-color:#00C8EF"/>
		<stop  offset="1" style="stop-color:#0093E2"/>
	</linearGradient>
	<path class="st2" d="M12.85,18.02c1.84-3.16,3.71-6.39,5.38-9.44c0.97-1.77,2.34-3.01,4.15-3.77c0.84-0.35,1.76-0.65,2.66-0.67
		C29.09,4.03,33.15,4.01,37.2,4c5.68-0.01,11.37,0.12,17.04,0.01c4.4-0.08,7.55,1.67,9.6,5.58c1.42,2.71,3.19,5.76,4.71,8.43
		C67.13,18.02,15.31,18.02,12.85,18.02z"/>
	<linearGradient id="SVGID_3_" gradientUnits="userSpaceOnUse" x1="2.069" y1="38.6068" x2="44.6632" y2="38.6068">
		<stop  offset="0" style="stop-color:#CB00BF"/>
		<stop  offset="1" style="stop-color:#346ADF"/>
		<stop  offset="1" style="stop-color:#004CCC"/>
	</linearGradient>
	<path class="st3" d="M5.06,45.56l31.07,0.13c0.3,0,0.58-0.16,0.73-0.42l7.81-13.73H5.06c0,0-2.99,2.86-2.99,7.01
		C2.07,42.57,5.06,45.56,5.06,45.56z"/>
	<linearGradient id="SVGID_4_" gradientUnits="userSpaceOnUse" x1="2.0377" y1="40.9124" x2="40.1498" y2="40.9124">
		<stop  offset="2.600930e-07" style="stop-color:#740784"/>
		<stop  offset="1" style="stop-color:#0D41C1"/>
	</linearGradient>
	<path class="st4" d="M5.06,45.56c0,0-3.38-3.68-2.99-7.75c0,0,10.65-3.81,21.3,0.09c9.23,3.38,16.78,1.57,16.78,1.57l-3.54,6.22
		L5.06,45.56z"/>
	<linearGradient id="SVGID_5_" gradientUnits="userSpaceOnUse" x1="5.0558" y1="43.5401" x2="38.4821" y2="43.5401">
		<stop  offset="0" style="stop-color:#520785"/>
		<stop  offset="1" style="stop-color:#0252D2"/>
	</linearGradient>
	<path class="st5" d="M5.06,45.56c0,0,5.71-4.29,10.39-4.16c5.59,0.16,7.95,1.45,14.8,2.08c2.86,0.26,8.23-1.08,8.23-1.08
		l-1.65,2.89c-0.14,0.24-0.4,0.39-0.68,0.39L5.06,45.56z"/>
	<linearGradient id="SVGID_6_" gradientUnits="userSpaceOnUse" x1="12.7176" y1="62.8917" x2="68.2978" y2="62.8917">
		<stop  offset="2.600930e-07" style="stop-color:#0053B6"/>
		<stop  offset="0.2584" style="stop-color:#0070C9"/>
		<stop  offset="0.5166" style="stop-color:#0086D8"/>
		<stop  offset="0.767" style="stop-color:#0093E0"/>
		<stop  offset="1" style="stop-color:#0097E3"/>
	</linearGradient>
	<path class="st6" d="M12.72,58.93l3.3,5.78c0,0,13.54,2.14,19.29,2.14c4.42,0,7.4-3.25,12.08-4.16c5.87-1.14,12.15,3.04,19.55-1.12
		c0.31-0.18,1.35-2.64,1.35-2.64H12.72z"/>
	<linearGradient id="SVGID_7_" gradientUnits="userSpaceOnUse" x1="44.0443" y1="71.0923" x2="62.1477" y2="71.0923">
		<stop  offset="2.600930e-07" style="stop-color:#0053B6"/>
		<stop  offset="1" style="stop-color:#0097E3"/>
	</linearGradient>
	<path class="st7" d="M44.04,72.95c0,0,3.74-2.2,9.06-3.24c5.93-1.16,9.04,0,9.04,0s-0.99,1.43-2.81,2.34
		c-2.44,1.22-4.22,0.91-4.22,0.91H44.04z"/>
	<linearGradient id="SVGID_8_" gradientUnits="userSpaceOnUse" x1="12.8474" y1="12.7321" x2="68.5575" y2="12.7321">
		<stop  offset="0.0743" style="stop-color:#004FB5"/>
		<stop  offset="0.9349" style="stop-color:#008AD8"/>
	</linearGradient>
	<path class="st8" d="M12.85,18.02l6.08-10.54c0,0,32.32-0.93,46.88,5.71l2.74,4.83H12.85z"/>
	<linearGradient id="SVGID_9_" gradientUnits="userSpaceOnUse" x1="12.8474" y1="15.0193" x2="68.5575" y2="15.0193">
		<stop  offset="0.0743" style="stop-color:#C306C1"/>
		<stop  offset="0.9349" style="stop-color:#644FD7"/>
	</linearGradient>
	<path class="st9" d="M12.85,18.02l3.46-6.01c0,0,3.68,3.28,10.04,2.76c10-0.82,20.26-6.23,42.2,3.25H12.85z"/>
</g>
</svg>
