<?xml version="1.0" encoding="utf-8"?>
<!-- Generator: Adobe Illustrator 23.0.0, SVG Export Plug-In . SVG Version: 6.00 Build 0)  -->
<svg version="1.1" id="Layer_1" xmlns="http://www.w3.org/2000/svg" xmlns:xlink="http://www.w3.org/1999/xlink" x="0px" y="0px"
	 viewBox="0 0 150 76" style="enable-background:new 0 0 150 76;" xml:space="preserve">
<style type="text/css">
	.st0{fill:#16009D;}
	.st1{fill:#110079;}
	.st2{fill:url(#SVGID_1_);}
	.st3{fill:url(#SVGID_2_);}
	.st4{fill:url(#SVGID_3_);}
	.st5{fill:url(#SVGID_4_);}
	.st6{fill:url(#SVGID_5_);}
	.st7{fill:url(#SVGID_6_);}
	.st8{opacity:0.52;fill:url(#SVGID_7_);}
	.st9{fill:url(#SVGID_8_);}
	.st10{fill:url(#SVGID_9_);}
</style>
<g>
	<path class="st0" d="M65.84,26.26l0,3.4L58,29.67l0.01,6.09l7.49-0.01l0,3.4l-7.49,0.01l0.01,6.17l8.16-0.01l0,3.41l-11.64,0.01
		l-0.03-22.46L65.84,26.26z"/>
	<path class="st0" d="M72.48,48.72l-3.42,0l-0.02-14.74c0.93-0.65,2.02-1.13,3.28-1.44c2.13-0.52,4.37-0.47,6.72,0.16l0,3.38
		c-1.25-0.44-2.46-0.66-3.64-0.66c-1.08,0-2.07,0.2-2.94,0.61L72.48,48.72z"/>
	<path class="st0" d="M95.83,47.1c-2.1,1.29-4.35,1.93-6.77,1.94c-2.37,0-4.19-0.57-5.48-1.73c-1.34-1.2-2.01-2.98-2.01-5.34
		l-0.01-9.29l3.43,0L85,41.97c0,1.63,0.4,2.73,1.2,3.29c0.55,0.38,1.51,0.58,2.86,0.57c0.67,0,1.3-0.09,1.89-0.28
		c0.22-0.07,0.47-0.16,0.75-0.28l0.37-0.16l0.35-0.15l-0.02-12.3l3.42,0L95.83,47.1z"/>
	<path class="st0" d="M109.18,24.56l3.43,0l0.03,21.96c-0.93,0.78-2.01,1.39-3.25,1.82c-1.28,0.44-2.63,0.66-4.07,0.66
		c-1.04,0-2.02-0.19-2.94-0.56c-0.88-0.36-1.66-0.88-2.32-1.56c-1.37-1.39-2.06-3.22-2.07-5.49c0-2.27,0.17-3.86,0.53-4.75
		c0.35-0.87,0.87-1.66,1.55-2.36c0.64-0.65,1.4-1.16,2.28-1.52c0.92-0.38,1.9-0.58,2.94-0.58c1.52,0,2.82,0.35,3.9,1.05
		L109.18,24.56z M109.2,36.89c-0.72-0.56-1.3-0.94-1.75-1.13c-0.59-0.25-1.3-0.38-2.15-0.38c-1.11,0-2.03,0.38-2.76,1.13
		c-0.76,0.78-1.13,2.15-1.13,4.09c0,1.94,0.37,3.29,1.11,4.04c0.75,0.77,1.69,1.16,2.79,1.16c1.59,0,2.89-0.35,3.89-1.05
		L109.2,36.89z"/>
	<path class="st0" d="M118.92,29.85l-3.43,0l0-2.91l3.43,0L118.92,29.85z M115.52,48.71l-0.02-16.05l3.43,0l0.02,16.05L115.52,48.71
		z"/>
	<path class="st0" d="M129.26,48.73c-0.48,0.11-0.95,0.17-1.41,0.2c-0.18,0.01-0.37,0.02-0.56,0.02c-0.08,0-0.16,0.01-0.25,0.01
		h-0.23c-1.6,0-2.83-0.47-3.68-1.43c-0.87-0.97-1.31-2.32-1.31-4.04l-0.02-15.66l3.42,0l0.01,4.77l4.02-0.01l0,2.81l-4.02,0.01
		l0.01,7.62c0,0.96,0.14,1.64,0.43,2.06c0.31,0.44,0.84,0.66,1.61,0.66c0.81,0,1.47-0.13,1.99-0.4L129.26,48.73z M129.26,48.73
		c-0.48,0.11-0.95,0.17-1.41,0.2c-0.18,0.01-0.37,0.02-0.56,0.02c-0.08,0-0.16,0.01-0.25,0.01h-0.23c-1.6,0-2.83-0.47-3.68-1.43
		c-0.87-0.97-1.31-2.32-1.31-4.04l-0.02-15.66l3.42,0l0.01,4.77l4.02-0.01l0,2.81l-4.02,0.01l0.01,7.62c0,0.96,0.14,1.64,0.43,2.06
		c0.31,0.44,0.84,0.66,1.61,0.66c0.81,0,1.47-0.13,1.99-0.4L129.26,48.73z"/>
	<path class="st0" d="M138.44,32.12c1.79,0,3.21,0.52,4.29,1.57c0.85,0.84,1.47,1.93,1.85,3.27s0.47,3.08,0.27,5.25l-10.46,0.01
		c0.04,0.57,0.26,1.13,0.66,1.69c0.79,1.12,2.08,1.68,3.87,1.68c1.17,0,2.32-0.23,3.46-0.67c0.57-0.22,1.02-0.45,1.36-0.67l0,3.6
		c-1.62,0.74-3.38,1.11-5.28,1.12c-1.04,0-2.02-0.18-2.94-0.56c-0.89-0.36-1.68-0.87-2.35-1.54c-1.41-1.4-2.12-3.53-2.12-6.36
		c0-2.84,0.64-4.94,1.94-6.31c1.3-1.37,2.99-2.06,5.04-2.06L138.44,32.12z M141.51,38.73c0-0.94-0.3-1.73-0.9-2.4
		c-0.6-0.66-1.32-0.99-2.17-0.99l-0.4,0c-1.06,0-1.92,0.34-2.58,1.01c-0.66,0.67-1.03,1.57-1.11,2.71l7.16-0.01L141.51,38.73z"/>
</g>
<g>
	<path class="st1" d="M80.62,59.84c0,0.3,0.06,0.54,0.18,0.73c0.12,0.19,0.28,0.35,0.48,0.48s0.44,0.23,0.71,0.31
		c0.27,0.08,0.55,0.15,0.84,0.22c0.39,0.09,0.77,0.2,1.15,0.31c0.38,0.12,0.71,0.27,1.01,0.48s0.53,0.47,0.72,0.79
		c0.18,0.33,0.28,0.75,0.28,1.26c0,0.52-0.1,0.97-0.29,1.35s-0.47,0.69-0.82,0.93c-0.35,0.24-0.76,0.42-1.24,0.54
		c-0.48,0.12-1,0.18-1.56,0.18c-0.26,0-0.53-0.02-0.8-0.05c-0.27-0.03-0.53-0.08-0.78-0.13c-0.25-0.06-0.47-0.12-0.67-0.19
		c-0.2-0.07-0.36-0.14-0.47-0.21l0-1.12c0.18,0.09,0.38,0.17,0.61,0.25c0.22,0.08,0.46,0.14,0.7,0.19c0.24,0.05,0.48,0.09,0.73,0.13
		c0.25,0.03,0.48,0.04,0.69,0.04c0.35,0,0.69-0.03,1-0.09c0.32-0.06,0.6-0.16,0.84-0.3c0.24-0.14,0.43-0.33,0.57-0.58
		c0.14-0.24,0.21-0.55,0.21-0.92c0-0.3-0.06-0.55-0.19-0.74c-0.12-0.2-0.29-0.36-0.49-0.49S83.57,63,83.3,62.92
		c-0.27-0.08-0.55-0.15-0.85-0.22c-0.39-0.09-0.77-0.19-1.15-0.3s-0.71-0.27-1-0.47s-0.53-0.46-0.71-0.77
		c-0.18-0.32-0.27-0.72-0.27-1.21c0-0.51,0.09-0.95,0.28-1.32c0.19-0.37,0.44-0.67,0.76-0.92c0.32-0.24,0.69-0.42,1.1-0.54
		c0.42-0.12,0.86-0.17,1.33-0.17c0.54,0,1.04,0.05,1.5,0.15s0.89,0.24,1.28,0.4l0,1.14c-0.42-0.17-0.85-0.32-1.29-0.43
		c-0.44-0.11-0.92-0.17-1.42-0.17c-0.38,0-0.71,0.04-0.99,0.13s-0.51,0.2-0.7,0.35c-0.19,0.15-0.32,0.34-0.41,0.56
		S80.62,59.58,80.62,59.84z"/>
	<path class="st1" d="M94.37,63.66c0,0.56-0.08,1.07-0.24,1.53c-0.16,0.46-0.39,0.86-0.68,1.19c-0.29,0.33-0.65,0.58-1.06,0.76
		c-0.42,0.18-0.88,0.27-1.4,0.27c-0.53,0-1.01-0.09-1.43-0.27c-0.42-0.18-0.78-0.43-1.07-0.76c-0.29-0.33-0.52-0.72-0.68-1.19
		c-0.16-0.46-0.23-0.97-0.23-1.53c0-0.57,0.08-1.08,0.24-1.54c0.16-0.46,0.39-0.86,0.68-1.19c0.29-0.33,0.65-0.59,1.07-0.77
		c0.42-0.18,0.89-0.27,1.4-0.27c0.53,0,1,0.09,1.42,0.27c0.42,0.18,0.78,0.44,1.07,0.77s0.51,0.73,0.67,1.19
		C94.29,62.58,94.37,63.09,94.37,63.66z M93.15,63.66c0-0.44-0.05-0.83-0.16-1.18s-0.26-0.63-0.45-0.87
		c-0.19-0.24-0.42-0.42-0.69-0.54c-0.27-0.12-0.56-0.18-0.87-0.18c-0.32,0-0.61,0.06-0.87,0.19c-0.27,0.12-0.49,0.3-0.69,0.54
		c-0.19,0.24-0.34,0.53-0.45,0.87s-0.16,0.74-0.16,1.18c0,0.44,0.05,0.83,0.16,1.17c0.11,0.34,0.26,0.63,0.46,0.87
		c0.2,0.24,0.43,0.41,0.69,0.54c0.27,0.12,0.56,0.18,0.87,0.18c0.32,0,0.61-0.06,0.87-0.19c0.26-0.12,0.49-0.3,0.68-0.54
		c0.19-0.24,0.34-0.53,0.45-0.87S93.15,64.1,93.15,63.66z"/>
	<path class="st1" d="M100.35,57.25c-0.15-0.03-0.32-0.05-0.5-0.07s-0.34-0.02-0.47-0.02c-0.26,0-0.5,0.03-0.7,0.1
		c-0.21,0.07-0.38,0.17-0.52,0.31c-0.14,0.14-0.25,0.33-0.32,0.56c-0.07,0.23-0.11,0.52-0.11,0.85l0,1.1l2.13,0l0,1l-2.13,0
		l0.01,6.14l-1.17,0l-0.01-6.14l-1.26,0l0-1l1.26,0l0-1.09c0-0.52,0.07-0.95,0.21-1.3s0.33-0.64,0.57-0.87s0.52-0.4,0.85-0.5
		s0.68-0.16,1.05-0.16c0.24,0,0.46,0.01,0.67,0.04c0.2,0.02,0.35,0.05,0.45,0.08L100.35,57.25z"/>
	<path class="st1" d="M104.88,67.23c-0.1,0.04-0.25,0.08-0.46,0.11c-0.21,0.04-0.45,0.05-0.74,0.06c-0.38,0-0.7-0.05-0.98-0.14
		c-0.28-0.09-0.51-0.23-0.69-0.4c-0.18-0.17-0.32-0.38-0.41-0.63c-0.09-0.25-0.14-0.52-0.14-0.82l-0.01-4.35l-1.38,0v-1l1.38,0
		l0-1.96l1.17,0l0,1.96l2.14,0l0,1l-2.14,0l0.01,4.17c0,0.17,0.02,0.32,0.07,0.46c0.05,0.14,0.12,0.26,0.23,0.36
		c0.1,0.1,0.23,0.18,0.4,0.24c0.16,0.06,0.35,0.09,0.58,0.09c0.16,0,0.32-0.01,0.49-0.04s0.33-0.06,0.48-0.1L104.88,67.23z"/>
	<path class="st1" d="M110.71,61.24c-0.15,0.66-0.29,1.22-0.43,1.7l-1.15,4.27l-1.18,0l-2.33-7.14l1.17,0l1.34,4.45
		c0.18,0.59,0.31,1.05,0.4,1.41h0.03c0.08-0.36,0.21-0.88,0.4-1.56l1.19-4.3l1.17,0l1.31,4.29c0.18,0.58,0.32,1.1,0.44,1.56h0.03
		c0.12-0.46,0.25-0.93,0.4-1.41l1.33-4.46l1.17,0l-2.37,7.15l-1.22,0l-1.19-4.26c-0.14-0.51-0.29-1.07-0.44-1.7H110.71z"/>
	<path class="st1" d="M121.61,66.4h-0.03c-0.1,0.12-0.22,0.24-0.36,0.36c-0.14,0.12-0.31,0.22-0.5,0.32s-0.4,0.17-0.62,0.22
		c-0.23,0.05-0.47,0.08-0.72,0.08c-0.35,0-0.66-0.05-0.95-0.15c-0.29-0.1-0.54-0.25-0.75-0.45c-0.21-0.2-0.37-0.44-0.49-0.73
		c-0.12-0.28-0.17-0.61-0.17-0.97c0-0.36,0.06-0.67,0.19-0.96s0.31-0.52,0.54-0.71c0.23-0.2,0.51-0.35,0.83-0.45
		c0.32-0.11,0.68-0.16,1.07-0.16c0.37,0,0.71,0.04,1.03,0.1c0.32,0.06,0.6,0.13,0.84,0.22h0.03l0-0.5c0-0.2-0.01-0.37-0.04-0.52
		c-0.03-0.15-0.07-0.28-0.13-0.4c-0.13-0.24-0.34-0.44-0.63-0.6c-0.29-0.16-0.67-0.24-1.16-0.24c-0.36,0-0.7,0.04-1.02,0.1
		c-0.32,0.07-0.64,0.16-0.95,0.28l0-0.98c0.12-0.06,0.26-0.12,0.42-0.17c0.16-0.05,0.33-0.1,0.52-0.14s0.37-0.07,0.57-0.09
		c0.2-0.02,0.4-0.03,0.6-0.03c0.72,0,1.31,0.13,1.77,0.38c0.46,0.25,0.79,0.59,0.99,1.01c0.08,0.16,0.13,0.34,0.16,0.53
		c0.03,0.19,0.05,0.4,0.05,0.63l0.01,4.77l-0.98,0L121.61,66.4z M121.54,64.06c-0.21-0.06-0.47-0.12-0.76-0.17
		c-0.29-0.05-0.62-0.08-0.97-0.09c-0.49,0-0.88,0.11-1.16,0.32c-0.28,0.21-0.42,0.53-0.42,0.97c0,0.22,0.04,0.41,0.11,0.58
		c0.07,0.17,0.17,0.3,0.29,0.41c0.12,0.11,0.27,0.19,0.43,0.24c0.17,0.05,0.35,0.08,0.54,0.08c0.25,0,0.48-0.04,0.7-0.11
		s0.41-0.16,0.57-0.26c0.17-0.1,0.31-0.2,0.43-0.3c0.12-0.1,0.2-0.18,0.26-0.23L121.54,64.06z"/>
	<path class="st1" d="M128.88,60.99h-0.09c-0.28,0-0.55,0.02-0.81,0.08c-0.27,0.05-0.52,0.13-0.75,0.23
		c-0.23,0.1-0.44,0.23-0.63,0.38c-0.19,0.15-0.34,0.33-0.47,0.53l0.01,4.98l-1.17,0l-0.01-7.15l0.9,0l0.23,1.14h0.02
		c0.12-0.19,0.26-0.36,0.42-0.52c0.17-0.16,0.36-0.3,0.57-0.42c0.21-0.12,0.44-0.21,0.69-0.28c0.25-0.07,0.51-0.1,0.79-0.1
		c0.05,0,0.1,0,0.15,0c0.05,0,0.1,0.01,0.14,0.01L128.88,60.99z"/>
	<path class="st1" d="M133.52,66.35c0.39,0,0.74-0.03,1.06-0.09c0.32-0.06,0.64-0.15,0.95-0.27l0,0.97
		c-0.26,0.13-0.57,0.22-0.95,0.3c-0.38,0.07-0.78,0.11-1.21,0.11c-0.51,0-0.99-0.06-1.44-0.19c-0.45-0.13-0.84-0.34-1.17-0.63
		c-0.33-0.29-0.59-0.67-0.77-1.14c-0.19-0.47-0.28-1.03-0.28-1.7c0-0.65,0.09-1.22,0.27-1.7c0.18-0.48,0.42-0.88,0.72-1.2
		c0.3-0.32,0.64-0.56,1.03-0.72c0.39-0.16,0.8-0.24,1.22-0.24c0.4,0,0.77,0.07,1.12,0.2c0.35,0.13,0.65,0.34,0.91,0.63
		c0.25,0.29,0.46,0.65,0.6,1.1c0.15,0.45,0.22,0.99,0.22,1.63c0,0.06,0,0.11,0,0.15c0,0.04,0,0.14-0.01,0.29l-4.93,0.01
		c0,0.46,0.07,0.84,0.21,1.16s0.33,0.58,0.56,0.77c0.24,0.2,0.52,0.34,0.84,0.43C132.8,66.31,133.15,66.35,133.52,66.35z
		 M132.9,60.85c-0.27,0-0.52,0.05-0.75,0.16c-0.23,0.11-0.43,0.25-0.6,0.43c-0.17,0.18-0.31,0.39-0.42,0.64
		c-0.11,0.24-0.17,0.5-0.2,0.78l3.66,0c0-0.28-0.04-0.54-0.11-0.79c-0.07-0.24-0.18-0.46-0.32-0.64c-0.14-0.18-0.32-0.32-0.53-0.42
		C133.41,60.9,133.17,60.85,132.9,60.85z"/>
	<path class="st1" d="M138.62,61.93c0,0.2,0.04,0.36,0.13,0.48c0.08,0.13,0.2,0.23,0.33,0.3c0.14,0.08,0.3,0.14,0.49,0.19
		c0.18,0.05,0.37,0.1,0.57,0.14c0.27,0.06,0.52,0.13,0.76,0.2c0.24,0.07,0.46,0.18,0.67,0.33c0.2,0.14,0.37,0.34,0.49,0.59
		c0.13,0.25,0.19,0.57,0.19,0.97c0,0.36-0.07,0.68-0.21,0.96c-0.14,0.28-0.34,0.51-0.59,0.7c-0.25,0.19-0.56,0.33-0.92,0.43
		c-0.36,0.1-0.75,0.15-1.17,0.15c-0.26,0-0.5-0.01-0.71-0.04c-0.21-0.03-0.4-0.06-0.56-0.1c-0.16-0.04-0.3-0.09-0.42-0.13
		c-0.12-0.05-0.21-0.09-0.29-0.13l0-0.98c0.3,0.12,0.59,0.21,0.88,0.29c0.29,0.07,0.61,0.1,0.96,0.1c0.28,0,0.52-0.03,0.75-0.08
		c0.22-0.05,0.41-0.13,0.57-0.22c0.16-0.1,0.28-0.22,0.37-0.37c0.09-0.15,0.13-0.32,0.13-0.52c0-0.2-0.04-0.37-0.12-0.5
		c-0.08-0.13-0.19-0.24-0.32-0.32c-0.13-0.08-0.29-0.16-0.46-0.21c-0.17-0.06-0.36-0.11-0.55-0.15c-0.25-0.05-0.51-0.12-0.76-0.2
		c-0.26-0.08-0.49-0.18-0.71-0.31c-0.21-0.14-0.38-0.32-0.51-0.55c-0.13-0.23-0.2-0.53-0.2-0.9c0-0.38,0.07-0.7,0.2-0.98
		c0.14-0.28,0.32-0.5,0.55-0.69s0.5-0.32,0.8-0.41c0.31-0.09,0.63-0.14,0.97-0.14c0.4,0,0.76,0.04,1.1,0.11
		c0.34,0.08,0.65,0.17,0.92,0.29l0,0.99c-0.29-0.12-0.59-0.21-0.89-0.28s-0.61-0.11-0.93-0.12c-0.27,0-0.5,0.03-0.69,0.08
		c-0.19,0.06-0.35,0.13-0.47,0.23s-0.21,0.21-0.27,0.35C138.65,61.62,138.62,61.77,138.62,61.93z"/>
</g>
<g>
	<linearGradient id="SVGID_1_" gradientUnits="userSpaceOnUse" x1="12.6779" y1="65.9848" x2="68.2849" y2="65.9848">
		<stop  offset="0" style="stop-color:#00D6F7"/>
		<stop  offset="5.925599e-08" style="stop-color:#00CCF1"/>
		<stop  offset="1.274966e-07" style="stop-color:#00C8EF"/>
		<stop  offset="1" style="stop-color:#0093E2"/>
	</linearGradient>
	<path class="st2" d="M12.68,58.93c18.69,0.01,37.02,0.01,55.61,0.02c-0.31,0.68-0.46,1.1-0.68,1.48c-1.59,2.76-3.21,5.52-4.8,8.28
		c-1.62,2.81-4.1,4.23-7.28,4.29c-3.94,0.08-7.89,0.01-11.83,0c-5.62-0.02-11.25-0.09-16.87-0.04c-4.16,0.03-7.22-1.57-9.18-5.34
		c-1.31-2.52-2.85-4.91-4.28-7.37C13.19,59.95,13.04,59.64,12.68,58.93z"/>
	<linearGradient id="SVGID_2_" gradientUnits="userSpaceOnUse" x1="12.8474" y1="11.0125" x2="68.5575" y2="11.0125">
		<stop  offset="0" style="stop-color:#00D6F7"/>
		<stop  offset="5.925599e-08" style="stop-color:#00CCF1"/>
		<stop  offset="1.274966e-07" style="stop-color:#00C8EF"/>
		<stop  offset="1" style="stop-color:#0093E2"/>
	</linearGradient>
	<path class="st3" d="M12.85,18.02c1.84-3.16,3.71-6.39,5.38-9.44c0.97-1.77,2.34-3.01,4.15-3.77c0.84-0.35,1.76-0.65,2.66-0.67
		C29.09,4.03,33.15,4.01,37.2,4c5.68-0.01,11.37,0.12,17.04,0.01c4.4-0.08,7.55,1.67,9.6,5.58c1.42,2.71,3.19,5.76,4.71,8.43
		C67.13,18.02,15.31,18.02,12.85,18.02z"/>
	<linearGradient id="SVGID_3_" gradientUnits="userSpaceOnUse" x1="2.069" y1="38.6068" x2="44.6632" y2="38.6068">
		<stop  offset="0" style="stop-color:#CB00BF"/>
		<stop  offset="1" style="stop-color:#346ADF"/>
		<stop  offset="1" style="stop-color:#004CCC"/>
	</linearGradient>
	<path class="st4" d="M5.06,45.56l31.07,0.13c0.3,0,0.58-0.16,0.73-0.42l7.81-13.73H5.06c0,0-2.99,2.86-2.99,7.01
		C2.07,42.57,5.06,45.56,5.06,45.56z"/>
	<linearGradient id="SVGID_4_" gradientUnits="userSpaceOnUse" x1="2.0377" y1="40.9124" x2="40.1498" y2="40.9124">
		<stop  offset="2.600930e-07" style="stop-color:#740784"/>
		<stop  offset="1" style="stop-color:#0D41C1"/>
	</linearGradient>
	<path class="st5" d="M5.06,45.56c0,0-3.38-3.68-2.99-7.75c0,0,10.65-3.81,21.3,0.09c9.23,3.38,16.78,1.57,16.78,1.57l-3.54,6.22
		L5.06,45.56z"/>
	<linearGradient id="SVGID_5_" gradientUnits="userSpaceOnUse" x1="5.0558" y1="43.5401" x2="38.4821" y2="43.5401">
		<stop  offset="0" style="stop-color:#520785"/>
		<stop  offset="1" style="stop-color:#0252D2"/>
	</linearGradient>
	<path class="st6" d="M5.06,45.56c0,0,5.71-4.29,10.39-4.16c5.59,0.16,7.95,1.45,14.8,2.08c2.86,0.26,8.23-1.08,8.23-1.08
		l-1.65,2.89c-0.14,0.24-0.4,0.39-0.68,0.39L5.06,45.56z"/>
	<linearGradient id="SVGID_6_" gradientUnits="userSpaceOnUse" x1="12.7176" y1="62.8917" x2="68.2978" y2="62.8917">
		<stop  offset="2.600930e-07" style="stop-color:#0053B6"/>
		<stop  offset="0.2584" style="stop-color:#0070C9"/>
		<stop  offset="0.5166" style="stop-color:#0086D8"/>
		<stop  offset="0.767" style="stop-color:#0093E0"/>
		<stop  offset="1" style="stop-color:#0097E3"/>
	</linearGradient>
	<path class="st7" d="M12.72,58.93l3.3,5.78c0,0,13.54,2.14,19.29,2.14c4.42,0,7.4-3.25,12.08-4.16c5.87-1.14,12.15,3.04,19.55-1.12
		c0.31-0.18,1.35-2.64,1.35-2.64H12.72z"/>
	<linearGradient id="SVGID_7_" gradientUnits="userSpaceOnUse" x1="44.0443" y1="71.0923" x2="62.1477" y2="71.0923">
		<stop  offset="2.600930e-07" style="stop-color:#0053B6"/>
		<stop  offset="1" style="stop-color:#0097E3"/>
	</linearGradient>
	<path class="st8" d="M44.04,72.95c0,0,3.74-2.2,9.06-3.24c5.93-1.16,9.04,0,9.04,0s-0.99,1.43-2.81,2.34
		c-2.44,1.22-4.22,0.91-4.22,0.91H44.04z"/>
	<linearGradient id="SVGID_8_" gradientUnits="userSpaceOnUse" x1="12.8474" y1="12.7321" x2="68.5575" y2="12.7321">
		<stop  offset="0.0743" style="stop-color:#004FB5"/>
		<stop  offset="0.9349" style="stop-color:#008AD8"/>
	</linearGradient>
	<path class="st9" d="M12.85,18.02l6.08-10.54c0,0,32.32-0.93,46.88,5.71l2.74,4.83H12.85z"/>
	<linearGradient id="SVGID_9_" gradientUnits="userSpaceOnUse" x1="12.8474" y1="15.0193" x2="68.5575" y2="15.0193">
		<stop  offset="0.0743" style="stop-color:#C306C1"/>
		<stop  offset="0.9349" style="stop-color:#644FD7"/>
	</linearGradient>
	<path class="st10" d="M12.85,18.02l3.46-6.01c0,0,3.68,3.28,10.04,2.76c10-0.82,20.26-6.23,42.2,3.25H12.85z"/>
</g>
</svg>
