<svg height="512pt" style="fill: #058;" viewBox="-23 0 512 512.00013" width="512pt" xmlns="http://www.w3.org/2000/svg"><path d="m464.144531 97.605469c-.574219-5.5625-4.835937-10.113281-10.367187-11.0625-13.46875-2.308594-26.859375-5.023438-39.804688-8.066407-4.042968-.945312-8.085937 1.558594-9.035156 5.597657-.949219 4.039062 1.558594 8.082031 5.597656 9.035156 12.644532 2.972656 25.703125 5.632813 38.847656 7.925781 1.917969 20.058594 7.664063 102.25-16.207031 187.023438-13.910156 49.410156-35.464843 91.394531-64.0625 124.789062-34.84375 40.683594-80.566406 68.957032-135.910156 84.039063-55.347656-15.085938-101.070313-43.355469-135.914063-84.039063-28.597656-33.394531-50.152343-75.378906-64.0625-124.789062-23.871093-84.773438-18.121093-166.960938-16.203124-187.027344 126.777343-22.070312 195.808593-69.320312 216.179687-85.292969 14.445313 11.300781 61.050781 44.035157 142.890625 68.25 3.980469 1.175781 8.160156-1.097656 9.335938-5.074219 1.179687-3.980468-1.09375-8.160156-5.070313-9.339843-82.441406-24.386719-127.472656-57.289063-139.3125-66.792969-4.621094-3.710938-11.074219-3.707031-15.691406 0-71.300781 57.238281-189.714844 79.816406-212.730469 83.761719-5.53125.949219-9.792969 5.5-10.363281 11.0625-1.710938 16.625-8.953125 104.132812 16.5 194.527343 14.507812 51.523438 37.085937 95.425782 67.113281 130.488282 36.976562 43.175781 85.4375 73.097656 144.042969 88.945312 1.070312.289063 2.179687.433594 3.285156.433594s2.210937-.144531 3.285156-.4375c58.601563-15.84375 107.0625-45.765625 144.039063-88.941406 30.027344-35.0625 52.609375-78.964844 67.117187-130.488282 25.449219-90.394531 18.207031-177.902343 16.5-194.527343zm0 0"/><path d="m159.46875 422.554688c20.738281 14.214843 44.539062 25.015624 70.75 32.101562.976562.265625 1.980469.394531 2.984375.394531s2.007813-.128906 2.984375-.394531c45.507812-12.304688 83.152344-35.554688 111.882812-69.101562 23.3125-27.214844 40.832032-61.277344 52.082032-101.234376 19.703125-69.976562 14.101562-137.714843 12.777344-150.585937-.519532-5.054687-4.390626-9.1875-9.414063-10.046875-100.695313-17.261719-153.601563-56.515625-163.1875-64.214844-4.195313-3.363281-10.054687-3.363281-14.25.003906-54.625 43.855469-145.523437 61.179688-163.1875 64.210938-5.023437.859375-8.890625 4.992188-9.414063 10.046875-1.25 12.144531-4.6875 55.785156 3.460938 107.605469 10.554688 67.140625 35.699219 120.445312 74.734375 158.441406 2.976563 2.894531 7.730469 2.828125 10.628906-.144531 2.890625-2.972657 2.828125-7.730469-.144531-10.625-36.65625-35.679688-60.335938-86.148438-70.375-150.003907-7.339844-46.683593-4.949219-86.386718-3.621094-100.984374 95.195313-16.808594 148.082032-51.980469 165.042969-65.039063 16.964844 13.0625 69.847656 48.230469 165.039063 65.035156 1.566406 17.382813 5.285156 78.871094-12.554688 142.226563-10.652344 37.84375-27.152344 69.984375-49.03125 95.535156-26.53125 30.980469-61.335938 52.546875-103.453125 64.113281-24.203125-6.644531-46.148437-16.648437-65.238281-29.738281-3.425782-2.34375-8.101563-1.472656-10.445313 1.949219-2.347656 3.425781-1.476562 8.101562 1.949219 10.449219zm0 0"/><path d="m265.273438 159.253906h-64.136719c-7.332031 0-13.296875 5.964844-13.296875 13.296875v38.089844h-38.09375c-7.332032 0-13.296875 5.964844-13.296875 13.296875v64.136719c0 7.332031 5.964843 13.300781 13.296875 13.300781h38.09375v38.089844c0 7.332031 5.964844 13.296875 13.296875 13.296875h64.136719c7.332031 0 13.296874-5.964844 13.296874-13.296875v-38.089844h38.089844c7.332032 0 13.296875-5.96875 13.296875-13.300781v-64.132813c0-7.332031-5.964843-13.296875-13.296875-13.296875h-38.089844v-38.089843c0-7.332032-5.964843-13.300782-13.296874-13.300782zm49.65625 66.417969v60.675781h-38.089844c-7.332032 0-13.296875 5.964844-13.296875 13.296875v38.089844h-60.679688v-38.089844c0-7.332031-5.964843-13.296875-13.296875-13.296875h-38.089844v-60.675781h38.089844c7.332032 0 13.296875-5.964844 13.296875-13.296875v-38.09375h60.679688v38.09375c0 7.332031 5.964843 13.296875 13.296875 13.296875zm0 0"/></svg>