<svg xmlns="http://www.w3.org/2000/svg" viewBox="0 0 60.15 63.72"><defs><style>.cls-1{fill:#435466;}.cls-2{fill:#8a959e;}.cls-3{fill:#fff;}</style></defs><title>angularjs</title><g id="Layer_2" data-name="Layer 2"><g id="Layer_1-2" data-name="Layer 1"><path class="cls-1" d="M30,0,0,10.55,4.74,49.83,30,63.72l25.4-14.08,4.74-39.28Z"/><path class="cls-2" d="M57.16,12.63,29.91,3.34V60.4L52.75,47.76l4.41-35.13Z"/><path class="cls-2" d="M3.36,12.8,7.42,47.93,29.91,60.4V3.34L3.36,12.8Z"/><path class="cls-3" d="M37.41,33.72l-7.5,3.5H22l-3.71,9.3-6.92.13L29.91,5.41l7.5,28.31ZM36.68,32,30,18.63,24.44,31.72h5.47l6.77.23Z"/><path class="cls-3" d="M29.91,5.41,30,18.63l6.26,13.1h-6.3v5.48h8.7l4.07,9.43,6.62.12L29.91,5.41Z"/></g></g></svg>