<svg xmlns="http://www.w3.org/2000/svg" viewBox="0 0 54 54"><defs><style>.cls-1{fill:#8a959e;}.cls-2{fill:#fff;}</style></defs><title>bootstrap</title><g id="Layer_2" data-name="Layer 2"><g id="Layer_1-2" data-name="Layer 1"><path class="cls-1" d="M0,47a7,7,0,0,0,7,7H47a7,7,0,0,0,7-7V7a7,7,0,0,0-7-7H7A7,7,0,0,0,0,7V47Z"/><path class="cls-2" d="M22.39,23.89V16.24h6.73A10.22,10.22,0,0,1,31,16.4a4.86,4.86,0,0,1,1.58.57,3.12,3.12,0,0,1,1.1,1.15A3.81,3.81,0,0,1,34.07,20a3.44,3.44,0,0,1-1.24,3,5.15,5.15,0,0,1-3.16.92ZM15.2,10.65v32.7H31.05a17,17,0,0,0,4.28-.55A11.45,11.45,0,0,0,39,41.1a8.4,8.4,0,0,0,2.59-3,9,9,0,0,0,1-4.28,9.06,9.06,0,0,0-1.49-5.24,7.87,7.87,0,0,0-4.51-3.05,8.17,8.17,0,0,0,3.32-2.7A7.14,7.14,0,0,0,41,18.76a8.69,8.69,0,0,0-.76-3.85,6.15,6.15,0,0,0-2.13-2.49,9.16,9.16,0,0,0-3.29-1.36,20.67,20.67,0,0,0-4.26-.41Zm7.19,27.11v-9h7.83A6.06,6.06,0,0,1,34,29.86a4.26,4.26,0,0,1,1.42,3.6,4.48,4.48,0,0,1-.44,2.1,3.46,3.46,0,0,1-1.17,1.31,4.93,4.93,0,0,1-1.69.69,10.07,10.07,0,0,1-2,.2Z"/></g></g></svg>