<svg xmlns="http://www.w3.org/2000/svg" viewBox="0 0 49.72 59.71"><defs><style>.cls-1{fill:#8a959e;}</style></defs><title>codeigniter</title><g id="Layer_2" data-name="Layer 2"><g id="Layer_1-2" data-name="Layer 1"><path class="cls-1" d="M16,59.7c-3.58-1.54-6.93-5.48-6.94-9.5,0-4.39,2.77-8.11,6.23-10.56-.42,1.57-.65,3,.38,4.41a4.18,4.18,0,0,0,4.22,1.6c3.7-.81,3.87-4.88,1.68-7.25s-4.27-5-3.44-8.4a8.79,8.79,0,0,1,2.78-4.45c-1,2.68,1.88,5.33,3.79,6.64,3.32,2.29,7,4,10,6.69s5.57,6.62,5.09,11c-.52,4.78-4.32,8.11-8.58,9.79,9-2,18.32-9,18.51-19,.16-8.22-5.48-14.55-12.47-18.17l-.37-.2a2.83,2.83,0,0,1,.25,1.22,4.28,4.28,0,0,0,.12-.81,4.06,4.06,0,0,1-.13,1v-.17a4,4,0,0,1-.52,1.23l.11-.11a4.39,4.39,0,0,1-7,.42c-3-3.85.06-8,.49-12.08C30.71,7.93,27.51,3,23.53,0c2.19,3.54-.69,8.22-3,10.84s-5,4.66-7.42,7a60.76,60.76,0,0,0-7.39,8c-4.36,5.82-7,13.14-5.07,20.4S8.9,58.07,16,59.7Z"/></g></g></svg>