<svg xmlns="http://www.w3.org/2000/svg" viewBox="0 0 51.03 58.89"><defs><style>.cls-1{fill:#8a959e;}.cls-2,.cls-5{fill:#fff;}.cls-3{fill:none;}.cls-3,.cls-5{stroke:#fffdff;stroke-width:0.02px;}.cls-4{fill:#f0f0f0;}</style></defs><title>drupal</title><g id="Layer_2" data-name="Layer 2"><g id="Layer_1-2" data-name="Layer 1"><path class="cls-1" d="M16.79,9.39C6.48,13.76,0,22.34,0,33.37a25.52,25.52,0,1,0,51,0C51,16.43,35.29,9.69,35.29,9.69A40.06,40.06,0,0,1,29.93,7S27.5,5.5,23.27,0a10.83,10.83,0,0,1-6.48,9.36"/><path class="cls-2" d="M23,54c-.89-.62-.68-2.61,1.75-1.19,0,0,5.17,3.8,13.36-.76.63-.35,1.41.9-.61,2,0,0-8.27,4.23-14.5-.09Z"/><path class="cls-3" d="M23,54c-.89-.62-.68-2.61,1.75-1.19,0,0,5.17,3.8,13.36-.76.63-.35,1.41.9-.61,2,0,0-8.27,4.23-14.5-.09Z"/><path class="cls-4" d="M33.51,47.65c3,.35,2,1.8,2.79,2,1.64.46.93-1.34.93-1.34a3.65,3.65,0,0,0-3.31-2.28c-3.29-.5-5.75,2.64-5.75,2.64-.6,1.34.25,1.41.56,1.26C30.32,49.22,31.29,47.39,33.51,47.65Z"/><path class="cls-5" d="M33.51,47.65c3,.35,2,1.8,2.79,2,1.64.46.93-1.34.93-1.34a3.65,3.65,0,0,0-3.31-2.28c-3.29-.5-5.75,2.64-5.75,2.64-.6,1.34.25,1.41.56,1.26C30.32,49.22,31.29,47.39,33.51,47.65Z"/><path class="cls-1" d="M3.34,46.2s9.15,7.57,31.41-9.29c0,0,11.19-7,10.85-19.06A25.68,25.68,0,0,0,35.87,10C35,9.59,27.37,5.42,23.25.2c0,0-.74,15.15-20.14,21.13,0,0-4.89,7.21-2.23,18.93A56.52,56.52,0,0,0,3.34,46.2"/><path class="cls-2" d="M17.85,49s-7.59.21-6.68-7.89c0,0,1.59-9.11,12.25-7.08,0,0,2.33.5,6.68,3.84,0,0,2.87,2.22,4.45,2.17,0,0,1.23.12,3.78-1.49,0,0,5.2-4,7-3.9,0,0,3.67-.4,3.67,5.45,0,0,.07,6.44-4.79,8.6a2.66,2.66,0,0,1-2.66-1s-4-4.52-5.94-5.26a3.94,3.94,0,0,0-2.63.1s-1,.1-5,2.76c0,0-6.75,4.22-10.16,3.71Z"/><path class="cls-3" d="M17.85,49s-7.59.21-6.68-7.89c0,0,1.59-9.11,12.25-7.08,0,0,2.33.5,6.68,3.84,0,0,2.87,2.22,4.45,2.17,0,0,1.23.12,3.78-1.49,0,0,5.2-4,7-3.9,0,0,3.67-.4,3.67,5.45,0,0,.07,6.44-4.79,8.6a2.66,2.66,0,0,1-2.66-1s-4-4.52-5.94-5.26a3.94,3.94,0,0,0-2.63.1s-1,.1-5,2.76c0,0-6.75,4.22-10.16,3.71Z"/><path class="cls-1" d="M21.87,20c4.91-7,1.38-20,1.38-20A10.82,10.82,0,0,1,16.9,9.33C6.3,13.91,3.11,21.13,3.11,21.13,5.38,24.35,11.41,35,21.87,20"/><path class="cls-1" d="M23.25,0s.64,5.9-2.56,7.83c0,0-5.14,2.39-6.71,3.17,0,0-6.6,4-8.78,7.73C5.2,18.73.55,25,7,23.49c0,0,11.62-3.28,16.35-13.18a1.72,1.72,0,0,0-.61-1.7s3.54-2.67.54-8.61"/><path class="cls-2" d="M23.25,0a10.28,10.28,0,0,1-3.08,7.37S19.17,8.79,14,11c0,0-5.94,3.1-8.61,7.4,0,0-3.95,4.76,1.47,3.48,0,0,11-4,15-11.46a1.23,1.23,0,0,0-.29-1.59S25.48,5.76,23.25,0"/></g></g></svg>