<svg xmlns="http://www.w3.org/2000/svg" viewBox="0 0 52.91 60"><defs><style>.cls-1{fill:#8a959e;}.cls-2{fill:#ebebeb;}.cls-3{fill:#fff;}</style></defs><title>html</title><g id="Layer_2" data-name="Layer 2"><g id="Layer_1-2" data-name="Layer 1"><path class="cls-1" d="M52.91,0,48.09,54,26.42,60,4.81,54,0,0Z"/><path class="cls-1" d="M26.45,55.41,44,50.56,48.08,4.42H26.45Z"/><path class="cls-2" d="M17.08,17.66h9.37V11H9.84L10,12.82l1.63,18.25H26.45V24.44H17.69Zm1.5,16.72H11.93l.92,10.4,13.57,3.76h0V41.65h0l-7.37-2-.47-5.28Z"/><path class="cls-3" d="M26.43,31.07h8.16l-.77,8.59-7.39,2v6.89L40,44.78l.1-1.12,1.55-17.44.17-1.78H26.43v6.63Zm0-13.42h16l.13-1.49.3-3.35L43,11H26.43v6.61Z"/></g></g></svg>