<svg xmlns="http://www.w3.org/2000/svg" viewBox="0 0 230.47 64.92"><defs><style>.cls-1{fill:#8a959e;}</style></defs><title>jquery</title><g id="Layer_2" data-name="Layer 2"><g id="Layer_1-2" data-name="Layer 1"><path class="cls-1" d="M65.85,25.36h0L64,31.88Zm9.47,14.17-2,0Zm-.53,9.74h0l-12.16,0Zm2.55-9.73h0Zm-1.48,8.9L78,40.37l-2.12,8.08Zm44.76-37.19-4,18.55Zm-10.14,0-3,13.86,3-13.86Z"/><path class="cls-1" d="M119.94,10.42h-8.43a1.12,1.12,0,0,0-1,.83l-3,13.86-3,13.85a1.1,1.1,0,0,1-1,.83h-6c-5.9,0-5.22-4.08-4-9.68l0-.17.13-.7a.78.78,0,0,0,0-.14l.27-1.43.29-1.54c.09-.47.22-1.15.31-1.57l1.36-6.65,1.36-6.65a.67.67,0,0,0-.68-.84H87.91a1.1,1.1,0,0,0-1,.83L85,20.09l-1.87,8.83h0l-.17.82c-2.15,9.79-1.58,19.13,10.08,19.42H111.7a1.11,1.11,0,0,0,1-.83l3.94-18.54,3.94-18.54a.66.66,0,0,0-.67-.84Zm33.65,29.47a.67.67,0,0,1,.68.83l-.82,4m-.82,4,.82-4-.82,4Zm-1,.84h0c-2.48,0-9.94.08-15.55.08C142.88,49.65,151.61,49.57,151.61,49.57ZM131,34.73c0-.44.49-1.19,1-1.19l-1.05,0C130.46,38.3,131,34.73,131,34.73Z"/><path class="cls-1" d="M136.83,49.65h0Zm16.76-9.76a.67.67,0,0,1,.68.83l-.82,4-.13.65m-12.5,4.26h0Zm-2.07,0h0Zm-.63,0h0Zm-.64,0h0Zm1.15,0h0Zm13-.07-10.79.07Zm1-.84.69-3.35-.69,3.36Zm-14.71.92h0Zm-1.25,0h0Zm.63,0h0ZM13.92,34.83,15.23,29l-1.5,6.63L12.3,42.43l1.26-5.93c.09-.46.26-1.21.36-1.67ZM29.6,10.32H20.34a1.12,1.12,0,0,0-1,.83L18.42,15l-.88,3.88a.66.66,0,0,0,.67.83h9.33a1.12,1.12,0,0,0,1-.83L29.42,15l.85-3.87h0a.66.66,0,0,0-.67-.83Zm-2,12.9h0L24.87,35.79l2.72-12.57ZM.68,64.86s4.67.06,7.64.06c-2.26,0-6,0-7.65-.06ZM16.54,23.22,15.23,29Z"/><path class="cls-1" d="M26.92,22.39H17.58a1.11,1.11,0,0,0-1,.83L15.23,29l-1.31,5.8-.37,1.67-1.26,5.93L11,48.36c-.1.45-.3,1.19-.45,1.64,0,0-1.75,5.19-4.68,5.13H5.54L3,55.07H3a1.12,1.12,0,0,0-1,.82L1,60,0,64a.65.65,0,0,0,.65.84c1.67,0,5.39.06,7.64.06,7.33,0,11.19-4.06,13.66-15.73l2.9-13.4,2.72-12.57a.66.66,0,0,0-.67-.83ZM159.54,49.17a.66.66,0,0,1-.67-.83l7-32.9m3.41,32.9,2.84-14Z"/><path class="cls-1" d="M159,48.76a3.51,3.51,0,0,1,.07-1.25l3.33-15.62-3.51,16.45a.66.66,0,0,0,.67.83h.86C159.92,49.17,159,49,159,48.76Zm9.77.23a4.48,4.48,0,0,1-1.31.18h.85a1.08,1.08,0,0,0,1-.83l.17-.84c-.09.46-.47,1.38-.73,1.49Zm2-7.67,1.25-6.2h0l-1.25,6.19Zm27.71-23.67.39,1.6a.65.65,0,0,1-.66.83M169.47,47.5l1.25-6.18ZM198.05,16l.38,1.64ZM172,35.12c.1-.46.25-1.2.35-1.66l1.34-6.27-1.52,7.11ZM166,14.9c-.09.45-.21,1-.29,1.38l-3.33,15.61,3.51-16.45Z"/><path class="cls-1" d="M198.82,19.25l-.39-1.6L198.05,16l-.2-.83c-.76-2.95-3-4.65-7.81-4.65H167.78a1.1,1.1,0,0,0-1,.83L166.41,13,166,14.9l-.11.54-3.51,16.45-3.33,15.62a3.55,3.55,0,0,0-.08,1.25c.06.23,1,.41,1.43.41h7a4.61,4.61,0,0,0,1.32-.18,3.1,3.1,0,0,0,.72-1.49l1.26-6.18L172,35.13h0l.17-.82,1.51-7.11L175,20.92a1.1,1.1,0,0,1,1-.83h22.14a.65.65,0,0,0,.65-.83Z"/><path class="cls-1" d="M227.31,4.79h-8.79a1.82,1.82,0,0,0-1.33.7l-15.66,23c-.27.39-.57.33-.67-.12l-1.16-5.06a1.11,1.11,0,0,0-1-.83H188.59a.61.61,0,0,0-.62.82l4.51,15.81a3.78,3.78,0,0,1,0,1.64l-2,7.66a.63.63,0,0,0,.64.82h9.95a1.15,1.15,0,0,0,1.06-.82l2-7.66a5,5,0,0,1,.73-1.5L230.32,5.45c.29-.37.13-.68-.33-.67Zm-80,19.8h0a1,1,0,0,1-1,.88H133.53a.55.55,0,0,1-.6-.67s0,0,0,0h0s0,0,0,0l.05-.22c1.22-3.24,3.71-5.37,8.38-5.37,5.26,0,6.28,2.57,5.92,5.45ZM143.55,9.85c-16.39,0-20.28,10-22.46,20-2.18,10.24-2,19.81,15,19.81h4.76l10.79-.07a1.1,1.1,0,0,0,1-.83l.69-3.36.13-.65.82-4a.66.66,0,0,0-.68-.83H138.34c-6.06,0-7.86-1.61-7.2-6.35h24.39a1,1,0,0,0,.89-.63.83.83,0,0,0,.06-.21h0c3.62-13.65,2.58-22.85-12.92-22.85ZM66.08,24.54l-.23.82h0L64,31.88,62.17,38.4a1.19,1.19,0,0,1-1.09.82H51.34c-7.39,0-9.19-5.77-7.39-14.3,1.8-8.72,5.33-14.14,12.6-14.69,9.94-.75,11.93,6.24,9.53,14.31Zm6.68,14.18s4.59-11.15,5.63-17.59C79.82,12.51,75.51,0,58.83,0S35.05,11.94,32.3,24.92s.85,24.54,17.34,24.44l13,0,12.15,0a1.17,1.17,0,0,0,1.07-.83L78,40.37a.62.62,0,0,0-.63-.83H73.29c-.4,0-.63-.26-.58-.61a1.8,1.8,0,0,1,.05-.19Z"/><path class="cls-1" d="M154.84,31.26a.56.56,0,1,1-.56-.56A.56.56,0,0,1,154.84,31.26Z"/></g></g></svg>