<svg xmlns="http://www.w3.org/2000/svg" viewBox="0 0 59 59"><defs><style>.cls-1{fill:#8a959e;}</style></defs><title>laravel</title><g id="Layer_2" data-name="Layer 2"><g id="Layer_1-2" data-name="Layer 1"><path class="cls-1" d="M37,47.94c.46.66.74.61,1.1.46S56.87,42,57.44,41.82s.38-.39.2-.67S51.32,32.52,51,32s-.46-.39-.95-.24L30.52,36.89S36.52,47.27,37,47.94Zm22-8.5V29.67l-6.08,1.61C54.58,33.5,57.17,37,59,39.44ZM52.9,19.25c-.3.07-7,1.27-7.38,1.33s-.27.29-.11.52l5.87,8,7.62-1.88.1,0V26.18c-1.3-1.65-4.86-6.15-5.17-6.57s-.63-.43-.93-.36Z"/><path class="cls-1" d="M10.94,6.6c1.44-.07,1.57.26,2.21,1.2L29.09,34.46l20-4.81C48,28.08,43,20.93,42.49,20.25s0-1.12.91-1.27,8.56-1.44,9.22-1.54,1.17-.33,2.24,1c.55.66,2.4,3,4.14,5.13V11.06a10.63,10.63,0,0,0-3.25-7.81A10.63,10.63,0,0,0,47.94,0H11.06A10.63,10.63,0,0,0,3.25,3.25,10.72,10.72,0,0,0,.59,7.41c3.62-.3,9.34-.76,10.35-.81Z"/><path class="cls-1" d="M38.79,51.52c-1.69.52-2.45.77-3.55-.77-.83-1.15-5.29-9.18-7.47-13.14-4.14,1.09-11.72,3.06-13.9,3.59a2.69,2.69,0,0,1-3.39-1.56C10.23,39.09,4,25.62,0,17v31a10.63,10.63,0,0,0,3.25,7.81A10.63,10.63,0,0,0,11.06,59H47.94A11.1,11.1,0,0,0,59,47.94V44.3C54.47,46,39.92,51.18,38.79,51.52Z"/><path class="cls-1" d="M13.92,38.09c.6-.13,11.83-2.82,12.07-2.87s.39-.19.14-.63l-15-25.84c-.14-.23-.1-.31-.47-.29L.12,9.38A10.22,10.22,0,0,0,0,10.61c2,4,13.18,27.16,13.25,27.35s.06.27.66.13Z"/></g></g></svg>