<svg xmlns="http://www.w3.org/2000/svg" viewBox="0 0 102.62 69.69"><defs><style>.cls-1{fill:#8a959e;}</style></defs><title>mysql</title><g id="Layer_2" data-name="Layer 2"><g id="Layer_1-2" data-name="Layer 1"><path class="cls-1" d="M24.67,63.49h-4q-.21-10-1.15-18.85h0l-6,18.85h-3l-6-18.85h0q-.66,8.47-.84,18.85H0Q.35,50.88,1.75,39.83H6.66l5.71,17.39h0l5.74-17.39h4.7q1.54,12.93,1.82,23.66M41.84,46q-2.42,13.11-6.38,19.07c-2.05,3-4.31,4.58-6.76,4.58a6.73,6.73,0,0,1-2.42-.59V67a11.28,11.28,0,0,0,1.65.11,4,4,0,0,0,2.77-.95A3.45,3.45,0,0,0,32,63.56a17.35,17.35,0,0,0-1-4L26.63,46h3.89l3.12,10.1a13.59,13.59,0,0,1,.88,4.8A65.78,65.78,0,0,0,38.09,46h3.75Z"/><path class="cls-1" d="M94.55,63.49H83.3V39.83h3.79V60.58h7.46Zm-14.19.57L76,61.92a8.37,8.37,0,0,0,1.09-1.06q2.78-3.26,2.77-9.64,0-11.73-9.22-11.74a8.71,8.71,0,0,0-7,3q-2.78,3.26-2.77,9.6c0,4.16.81,7.21,2.45,9.15,1.5,1.75,3.75,2.63,6.77,2.63a10.79,10.79,0,0,0,3.09-.42l5.66,3.3Zm-14.09-5.3c-1-1.55-1.44-4-1.44-7.43q0-8.94,5.44-8.94a4.55,4.55,0,0,1,4.17,2.14q1.43,2.31,1.43,7.36,0,9-5.43,9a4.55,4.55,0,0,1-4.17-2.14m-7.08-1.83A6.27,6.27,0,0,1,57,61.87a8.65,8.65,0,0,1-5.92,1.93,11.87,11.87,0,0,1-6.73-2.21l1-2A11.46,11.46,0,0,0,50.43,61,5.4,5.4,0,0,0,53.78,60a3.23,3.23,0,0,0,1.28-2.63c0-1.4-1-2.61-2.77-3.61s-5-2.82-5-2.82a5.64,5.64,0,0,1-2.69-5,5.88,5.88,0,0,1,2-4.64,7.59,7.59,0,0,1,5.2-1.77,10.8,10.8,0,0,1,6,1.75l-.91,2a11.63,11.63,0,0,0-4.55-1,4,4,0,0,0-2.8.88,2.91,2.91,0,0,0-1.06,2.24c0,1.4,1,2.62,2.85,3.64,1.68.92,5.07,2.85,5.07,2.85a5.58,5.58,0,0,1,2.77,5"/><path class="cls-1" d="M99.3,31.91a13.11,13.11,0,0,0-5.54.8c-.43.17-1.12.17-1.18.71.24.23.26.6.46.92a6.71,6.71,0,0,0,1.49,1.74c.6.46,1.2.91,1.83,1.32,1.11.68,2.37,1.08,3.46,1.77.63.4,1.25.91,1.89,1.34.31.23.51.6.91.75v-.09c-.2-.26-.26-.63-.46-.92l-.86-.82a13.56,13.56,0,0,0-3-2.89c-.91-.63-2.92-1.49-3.29-2.54L95,33.94a12.24,12.24,0,0,0,2-.46c1-.26,1.86-.2,2.86-.46.45-.11.91-.26,1.37-.4v-.25c-.52-.52-.89-1.2-1.43-1.69A38.08,38.08,0,0,0,95,27.16c-.88-.57-2-.94-3-1.43-.34-.17-.91-.25-1.12-.54A11.84,11.84,0,0,1,89.78,23c-.82-1.57-1.63-3.31-2.34-5A31.81,31.81,0,0,0,86,14.76,28.77,28.77,0,0,0,74.92,4.07a13.91,13.91,0,0,0-3.66-1.18l-2.14-.11a10.89,10.89,0,0,1-1.32-1c-1.63-1-5.83-3.26-7-.31C60,3.33,61.92,5.15,62.57,6.1A12.84,12.84,0,0,1,64,8.24c.2.49.26,1,.46,1.52A36.09,36.09,0,0,0,66,13.59,15.06,15.06,0,0,0,67,15.36c.23.31.63.45.72,1a8.24,8.24,0,0,0-.66,2.14,12.6,12.6,0,0,0,.83,9.61c.46.71,1.54,2.28,3,1.68,1.29-.51,1-2.14,1.37-3.57.09-.34,0-.57.2-.8v.06c.4.8.8,1.57,1.17,2.37a16.31,16.31,0,0,0,3.72,3.83c.69.51,1.23,1.4,2.09,1.72v-.09h-.06a3,3,0,0,0-.66-.57A14,14,0,0,1,77.27,31a36.4,36.4,0,0,1-3.2-5.2c-.46-.89-.86-1.86-1.23-2.74-.18-.34-.18-.86-.46-1A10.55,10.55,0,0,0,71,24a16.19,16.19,0,0,0-.81,4.32l-.11,0c-.91-.22-1.23-1.17-1.57-2a12.36,12.36,0,0,1-.26-7.63c.2-.6,1.06-2.49.72-3.06-.17-.54-.75-.85-1.06-1.29a11.66,11.66,0,0,1-1-1.82c-.69-1.6-1-3.38-1.77-5a15,15,0,0,0-1.43-2.2,14.09,14.09,0,0,1-1.57-2.23A1.31,1.31,0,0,1,62,2a.47.47,0,0,1,.4-.37c.37-.31,1.43.08,1.8.26A13.87,13.87,0,0,1,67,3.29c.4.29.83.83,1.35,1H69c.91.2,1.94.05,2.8.31a18.68,18.68,0,0,1,4.12,2,25.39,25.39,0,0,1,8.91,9.78c.34.66.49,1.26.8,1.94.6,1.4,1.35,2.83,2,4.21a18.88,18.88,0,0,0,2,3.83c.42.59,2.14.91,2.91,1.22.57.26,1.46.49,2,.8,1,.6,2,1.29,2.86,2,.46.34,1.89,1.06,2,1.63M70.14,7.07A4.26,4.26,0,0,0,69,7.21v.06H69A8.78,8.78,0,0,0,70,8.44c.23.46.43.91.65,1.37l.06-.05a1.63,1.63,0,0,0,.6-1.43c-.17-.21-.2-.4-.35-.6s-.53-.43-.77-.66"/></g></g></svg>