<svg xmlns="http://www.w3.org/2000/svg" viewBox="0 0 207.82 58.68"><defs><style>.cls-1{fill:#8a959e;}</style></defs><title>nodejs</title><g id="Layer_2" data-name="Layer 2"><g id="Layer_1-2" data-name="Layer 1"><path class="cls-1" d="M191.17,20.83a2.81,2.81,0,0,0-1.43.35l-13.78,8a2.89,2.89,0,0,0-1.43,2.51V47.54A2.89,2.89,0,0,0,176,50.05l3.6,2.08a5.91,5.91,0,0,0,3.19.85c2.58,0,4.06-1.57,4.06-4.3V33a.39.39,0,0,0-.41-.38h-1.72a.39.39,0,0,0-.41.38V48.68c0,1.21-1.26,2.42-3.31,1.4l-3.74-2.19a.4.4,0,0,1-.24-.35V31.65a.46.46,0,0,1,.24-.38L191,23.34a.43.43,0,0,1,.41,0l13.74,7.93a.46.46,0,0,1,.24.38V47.54a.45.45,0,0,1-.21.38l-13.77,7.92a.38.38,0,0,1-.41,0l-3.54-2.1a.36.36,0,0,0-.35,0,9.09,9.09,0,0,1-2.08.93c-.23.08-.57.21.12.59L189.74,58a2.88,2.88,0,0,0,2.86,0l13.78-7.93a2.91,2.91,0,0,0,1.44-2.51V31.65a2.9,2.9,0,0,0-1.44-2.51l-13.78-8a2.81,2.81,0,0,0-1.43-.35Z"/><path class="cls-1" d="M194.86,32.18c-3.93,0-6.26,1.67-6.26,4.45,0,3,2.32,3.84,6.08,4.21,4.51.44,4.86,1.1,4.86,2,0,1.54-1.23,2.19-4.13,2.19-3.64,0-4.44-.91-4.71-2.72a.4.4,0,0,0-.38-.35h-1.78a.42.42,0,0,0-.41.41c0,2.32,1.26,5.06,7.28,5.06,4.36,0,6.88-1.71,6.88-4.71s-2-3.77-6.26-4.33-4.68-.84-4.68-1.84c0-.83.34-1.93,3.51-1.93,2.82,0,3.87.61,4.3,2.51a.39.39,0,0,0,.38.32h1.78a.4.4,0,0,0,.29-.14.38.38,0,0,0,.12-.29c-.28-3.29-2.46-4.83-6.87-4.83Z"/><path class="cls-1" d="M110.17,0a.83.83,0,0,0-.44.12.88.88,0,0,0-.44.76V23.26a.58.58,0,0,1-.29.52.62.62,0,0,1-.62,0l-3.65-2.1a1.73,1.73,0,0,0-1.76,0L88.37,30.1a1.81,1.81,0,0,0-.87,1.55V48.5A1.75,1.75,0,0,0,88.37,50L103,58.45a1.78,1.78,0,0,0,1.76,0L119.32,50a1.74,1.74,0,0,0,.88-1.52v-42a1.8,1.8,0,0,0-.9-1.55L110.61.09a.85.85,0,0,0-.44-.09ZM16.26,21a1.55,1.55,0,0,0-.78.21L.88,29.66A1.76,1.76,0,0,0,0,31.18L0,53.8a.87.87,0,0,0,.44.76.87.87,0,0,0,.88,0l8.65-5a1.78,1.78,0,0,0,.91-1.52V37.5A1.74,1.74,0,0,1,11.79,36l3.68-2.13a1.71,1.71,0,0,1,.88-.24,1.74,1.74,0,0,1,.88.24L20.92,36a1.73,1.73,0,0,1,.87,1.52V48.06a1.8,1.8,0,0,0,.91,1.52l8.66,5a.87.87,0,0,0,.88,0,.89.89,0,0,0,.44-.76l0-22.62a1.74,1.74,0,0,0-.87-1.52l-14.6-8.42a1.58,1.58,0,0,0-.79-.21Zm131.18.21a1.81,1.81,0,0,0-.88.23L132,29.9a1.76,1.76,0,0,0-.88,1.52V48.27a1.76,1.76,0,0,0,.91,1.52L146.47,58a1.78,1.78,0,0,0,1.73,0L157,53.18a.86.86,0,0,0,0-1.52l-14.68-8.42a1,1,0,0,1-.47-.79V37.18a.9.9,0,0,1,.47-.76l4.56-2.63a.87.87,0,0,1,.88,0l4.56,2.63a.89.89,0,0,1,.44.76v4.15a.88.88,0,0,0,1.32.76L162.82,37a1.76,1.76,0,0,0,.88-1.53V31.42a1.74,1.74,0,0,0-.88-1.52l-14.51-8.43a1.77,1.77,0,0,0-.87-.23ZM103.79,33.82a.44.44,0,0,1,.23.06l5,2.89a.46.46,0,0,1,.23.38v5.79a.45.45,0,0,1-.23.38l-5,2.9a.42.42,0,0,1-.43,0l-5-2.9a.45.45,0,0,1-.23-.38V37.15a.46.46,0,0,1,.23-.38l5-2.89a.36.36,0,0,1,.2-.06Z"/><path class="cls-1" d="M60.12,21.15a1.81,1.81,0,0,0-.88.23l-14.6,8.4a1.78,1.78,0,0,0-.88,1.55V48.18a1.76,1.76,0,0,0,.88,1.52l14.6,8.43a1.76,1.76,0,0,0,1.75,0l14.6-8.43a1.76,1.76,0,0,0,.88-1.52V31.33a1.78,1.78,0,0,0-.88-1.55L61,21.38a1.77,1.77,0,0,0-.87-.23Zm87.29,15a.36.36,0,0,0-.18,0l-2.81,1.63a.35.35,0,0,0-.17.3v3.21a.35.35,0,0,0,.17.3l2.81,1.61a.31.31,0,0,0,.32,0l2.81-1.61a.36.36,0,0,0,.18-.3V38.15a.36.36,0,0,0-.18-.3l-2.81-1.63c-.05,0-.08,0-.14,0Z"/></g></g></svg>