<svg xmlns="http://www.w3.org/2000/svg" viewBox="0 0 99.89 52"><defs><style>.cls-1{fill:#8a959e;}.cls-2{fill:#fff;fill-rule:evenodd;}</style></defs><title>Asset 1</title><g id="Layer_2" data-name="Layer 2"><g id="Layer_1-2" data-name="Layer 1"><ellipse class="cls-1" cx="49.95" cy="26" rx="49.95" ry="26"/><path class="cls-2" d="M14,41.39,19.5,13.68H32.16c5.47.35,8.21,3.08,8.21,7.87,0,8.21-6.5,13-12.32,12.66H21.89l-1.36,7.18Zm9.23-12.31L25,18.82h4.45c2.4,0,4.11,1,4.11,3.07-.35,5.82-3.08,6.85-6.16,7.19ZM39.1,34.21,44.57,6.5h6.5L49.7,13.68h6.16c5.47.35,7.53,3.08,6.84,6.5l-2.39,14H53.46l2.4-12.66c.34-1.71.34-2.73-2-2.73H48.68L45.6,34.21Zm20.77,7.18,5.47-27.71H78c5.47.35,8.21,3.08,8.21,7.87,0,8.21-6.5,13-12.32,12.66H67.74l-1.37,7.18Zm9.24-12.31,1.71-10.26h4.44c2.4,0,4.11,1,4.11,3.07-.34,5.82-3.08,6.85-6.16,7.19Z"/></g></g></svg>