<svg xmlns="http://www.w3.org/2000/svg" viewBox="0 0 167.8 59"><defs><style>.cls-1{fill:#8a959e;}</style></defs><title>rails</title><g id="Layer_2" data-name="Layer 2"><g id="Layer_1-2" data-name="Layer 1"><path class="cls-1" d="M146.06,51.33V59h13.86a7.93,7.93,0,0,0,7.88-7.88v-3a7.82,7.82,0,0,0-7.88-7.88H153V36.71H166.7V29H153.56a8.06,8.06,0,0,0-7.92,8v2.67a7.92,7.92,0,0,0,7.92,7.89c9.54,0-2.29,0,6.53,0v3.73M71.8,49.46s7.42-.63,7.42-10.21-9-10.47-9-10.47H54V59h8.14V51.71l7,7.29h12L71.8,49.46Zm-3.14-6.18H62.18V36.37h6.53s1.82.67,1.82,3.43a3.51,3.51,0,0,1-1.87,3.48ZM99.31,29H91c-5.89,0-7.88,5.34-7.88,7.89V59h8.26V53.7h7.76V59h8V36.88c0-6.45-5.85-7.89-7.88-7.89Zm-.13,16.15h-7.8V37.81s0-1.66,2.59-1.66h2.84c2.29,0,2.33,1.66,2.33,1.66v7.33ZM111,29h8.61V59H111Zm20.69,22.25V29h-8.56V59h20.13V51.24Z"/><path class="cls-1" d="M3,59H36.45s-6.4-29.2,14.79-41c4.62-2.25,19.33-10.64,43.41,7.16.76-.63,1.48-1.14,1.48-1.14S74.09,2,49.55,4.45C37.21,5.55,22,16.78,13.14,31.62S3,59,3,59Z"/><path class="cls-1" d="M3,59H36.45s-6.4-29.2,14.79-41c4.62-2.25,19.33-10.64,43.41,7.16.76-.63,1.48-1.14,1.48-1.14S74.09,2,49.55,4.45C37.21,5.55,22,16.78,13.14,31.62S3,59,3,59Z"/><path class="cls-1" d="M3,59H36.45s-6.4-29.2,14.79-41c4.62-2.25,19.33-10.64,43.41,7.16.76-.63,1.48-1.14,1.48-1.14S74.09,2,49.55,4.45C37.17,5.55,22,16.78,13.1,31.62S3,59,3,59ZM72.73,6.82,72.9,4A20.71,20.71,0,0,0,68.79,2.5l-.17,2.8C70,5.76,71.38,6.27,72.73,6.82Z"/><path class="cls-1" d="M68.71,15.81l-.17,2.67a23.06,23.06,0,0,1,4.19.51l.17-2.63A28.87,28.87,0,0,0,68.71,15.81ZM53,2.59h.43L52.6,0a33.78,33.78,0,0,0-4.07.25l.81,2.51A34.86,34.86,0,0,1,53,2.59Zm2,15.59,1,2.93a27.14,27.14,0,0,1,3.69-1.49l-.93-2.79a31.32,31.32,0,0,0-3.73,1.35ZM35.82,7,33.91,4.11c-1.06.55-2.16,1.15-3.31,1.82l1.95,3c1.1-.68,2.16-1.31,3.27-1.86ZM44.5,26.11l2,3.05a24,24,0,0,1,2.5-3l-1.91-2.88a24.06,24.06,0,0,0-2.63,2.84ZM38.36,39.76l3.43,2.71a34.44,34.44,0,0,1,.89-5l-3-2.42a40.66,40.66,0,0,0-1.27,4.67ZM19.79,19.62l-3-2.62c-1.1,1.06-2.16,2.12-3.13,3.18L16.91,23c.89-1.14,1.87-2.29,2.88-3.35ZM7,38.57,2.12,36.79C1.31,38.61.42,40.73,0,41.88l4.87,1.78C5.43,42.22,6.32,40.14,7,38.57Zm30.73,12a44.33,44.33,0,0,0,.51,5.34l5.09,1.83a55.65,55.65,0,0,1-1-5.51Z"/></g></g></svg>