<svg xmlns="http://www.w3.org/2000/svg" viewBox="0 0 51.34 58.67"><defs><style>.cls-1{fill:#8a959e;}</style></defs><title>sass</title><g id="Layer_2" data-name="Layer 2"><g id="Layer_1-2" data-name="Layer 1"><path class="cls-1" d="M15.78,35.9a22.49,22.49,0,0,0-3.43,2.56c-1.78,1.68-2.16,4-1.21,4.57s2.9-.1,4.35-1.69A6.3,6.3,0,0,0,17,35.17l-.23.13h0l-.1.06-.9.54ZM42,35.14c-.53,1.15-.55,1.52-.39,1.64a2.79,2.79,0,0,0,2-2.72,3,3,0,0,0-.15-.85A6.16,6.16,0,0,0,42,35.14Zm8.22-3.47a9.65,9.65,0,0,0-4.88.57,6,6,0,0,1,.43,1.85,3.83,3.83,0,0,1-1.88,3.12,6.59,6.59,0,0,1-1.7.88,2.66,2.66,0,0,1-1.35.27c-.86-.17-1.31-.94-.73-2.61a8.66,8.66,0,0,1,2.69-3.48,13.69,13.69,0,0,1-.9-2,16.1,16.1,0,0,1-.48-2A42.41,42.41,0,0,1,38.63,33l-.27.39a6.24,6.24,0,0,1,.58,2.22,3.53,3.53,0,0,1-1.53,3.14,6.2,6.2,0,0,1-1.59.85A5.86,5.86,0,0,1,34,40a2,2,0,0,1-1.24-.2.82.82,0,0,1-.22-1.09,28.9,28.9,0,0,1,2.37-3c.27-.32.53-.65.78-1v0s.18-.23.48-.64a19.17,19.17,0,0,1-1-2.37,15.78,15.78,0,0,1-.49-2s-1.22,3.13-2.5,5.64c-1,1.94-1.64,3.12-1.94,3.63v0l-.13.19-.05.1h0c-.34.49-1.08,1.45-1.82,1.45-2,0-1.28-4.12-1.28-4.12s-.59,1.53-1.26,2.83c-.54,1.07-1,2-2.12,2a1.65,1.65,0,0,1-1.22-.4,7,7,0,0,1-1.5-4.87,12.17,12.17,0,0,1,.66-3.36c-.63.34-1.25.69-1.86,1l-1,.6,0,.06a8.55,8.55,0,0,1-.76,7.84,7.88,7.88,0,0,1-8.49,3.44c-1.06-.29-2.67-2.49-1.28-5.55,1.22-2.7,6.1-5.26,7.38-5.89l.36-.2c-2.57-2.24-9-5.27-9.86-9.91-.26-1.31.36-4.44,4.2-8A35.11,35.11,0,0,1,22,9.36c7-2.48,14.34-1,15.48,3.43S34.82,22.4,30,24.28c-4.34,1.68-7.93,1.41-9.4.93a4.76,4.76,0,0,1-2.9-2.28c-.09-.24-.26-.65,0-.8s.22-.06.64.4,2,1.63,5.07,1.29c8-.9,12.85-7.14,11.32-10.5-1.07-2.34-7.25-3.4-15,.45-9.43,4.7-9.94,8.57-10,10.05-.22,4.05,5,6.18,7.81,9.19l.11.12,1.63-.9,3.39-1.86c1-1.44,3-3,4.46-3,2.33,0,1.53,3.35,1.53,3.35s.05-.16.11-.16a.93.93,0,0,1,1-.18c.74.27.57.79.58.85s-.87,3.07-1.24,5a3.11,3.11,0,0,0,0,1.57c.07,0,.22-.23.35-.48h0l.27-.53,0-.07h0c.29-.57.56-1.13.82-1.71.64-1.42,3.11-6.92,3.32-7.52s.31-1.24.42-1.51,1-.47,2-.47,1.12.45,1.13.54a15.51,15.51,0,0,0-.6,2.14,6.21,6.21,0,0,0,.09,2,6.05,6.05,0,0,0,.7,1.73,36.44,36.44,0,0,0,3.08-5.94,10.32,10.32,0,0,1,.42-1.51c.1-.26,1-.47,2-.46s1.12.44,1.13.53a17.51,17.51,0,0,0-.6,2.15,6.44,6.44,0,0,0,.09,2,9.46,9.46,0,0,0,1,2.37,10.33,10.33,0,0,1,4.56-1.06,8,8,0,0,1,2,.2V16.05A2.74,2.74,0,0,0,50,13.65L27,.37a2.77,2.77,0,0,0-2.76,0L1.32,13.64A2.73,2.73,0,0,0,0,16.05V42.61A2.73,2.73,0,0,0,1.32,45L24.26,58.3a2.77,2.77,0,0,0,2.76,0L50,45a2.76,2.76,0,0,0,1.36-2.41V31.88a7.31,7.31,0,0,0-1.14-.21ZM25.49,30.28a11,11,0,0,0-1.72,3.17c-.78,2.36-.45,4.77.11,4.91s1.7-3,2.21-4.23c.32-.77,1.55-4.21,1.28-4.67s-1.09-.07-1.88.82Zm8.94,8s-.16.15-.09.19.29,0,.5-.13c.61-.38,2-1.33,2-2.74,0,0,0-.08,0-.13-.28.37-.57.74-.86,1.1C35.52,37.08,34.43,38.25,34.43,38.25Z"/></g></g></svg>