<svg xmlns="http://www.w3.org/2000/svg" viewBox="0 0 61.07 61.07"><defs><style>.cls-1{fill:#8a959e;}</style></defs><title>wordpress</title><g id="Layer_2" data-name="Layer 2"><g id="Layer_1-2" data-name="Layer 1"><path class="cls-1" d="M4.34,30.53A26.22,26.22,0,0,0,19.1,54.11L6.61,19.87A26.14,26.14,0,0,0,4.34,30.53Zm43.88-1.32A13.82,13.82,0,0,0,46.06,22c-1.33-2.16-2.58-4-2.58-6.14a4.54,4.54,0,0,1,4.4-4.65l.34,0A26.18,26.18,0,0,0,8.65,16.15l1.68,0c2.74,0,7-.33,7-.33A1.08,1.08,0,0,1,17.48,18s-1.42.17-3,.25L24,46.63l5.74-17.2L25.68,18.25c-1.41-.08-2.75-.25-2.75-.25a1.08,1.08,0,0,1,.16-2.15s4.33.33,6.9.33c2.74,0,7-.33,7-.33A1.08,1.08,0,0,1,37.14,18s-1.42.17-3,.25l9.47,28.16,2.61-8.73c1.14-3.62,2-6.23,2-8.47ZM31,32.82,23.13,55.66a26.13,26.13,0,0,0,16.1-.42,2,2,0,0,1-.18-.36L31,32.82ZM53.52,18a20.46,20.46,0,0,1,.18,2.69,24.61,24.61,0,0,1-2,9.38l-8,23.14A26.19,26.19,0,0,0,53.52,18Zm-23-18A30.54,30.54,0,1,0,61.07,30.53,30.57,30.57,0,0,0,30.53,0Zm0,59.67A29.14,29.14,0,1,1,59.67,30.53,29.17,29.17,0,0,1,30.53,59.67Z"/></g></g></svg>